<svg width="30" height="31" viewBox="0 0 30 31" fill="none" xmlns="http://www.w3.org/2000/svg">
<rect x="1.68262" y="14.1357" width="18.7386" height="10.8253" transform="rotate(-46.0144 1.68262 14.1357)" fill="#068C40"/>
<path d="M13.7259 0.0520897C12.9162 0.321988 12.4468 0.938059 12.4468 1.74189C12.4468 2.53398 12.306 2.36382 16.6772 6.72913C19.781 9.83295 20.6494 10.6661 20.884 10.7776C21.3065 10.983 21.9988 10.9771 22.4037 10.7717C23.0374 10.449 23.4187 9.78015 23.3659 9.0702C23.319 8.37785 23.3659 8.43652 19.1121 4.19444C16.0024 1.09648 15.134 0.263314 14.9111 0.157702C14.559 -0.000716209 14.0369 -0.0476551 13.7259 0.0520897Z" fill="#3D5008"/>
<path d="M15.3948 15.4651L12.332 18.5689L12.6078 18.7449C12.9892 18.9855 13.441 19.0735 13.8575 18.9914C14.1744 18.9268 14.6438 18.698 14.7259 18.5689C14.7494 18.5278 17.0552 20.7926 20.2882 24.0197C26.3609 30.0806 26.044 29.799 26.9417 29.9574C27.7455 30.1041 28.6139 29.8166 29.2358 29.2005C30.0338 28.4143 30.2216 27.276 29.7287 26.2082C29.5996 25.9207 28.8721 25.1697 24.0726 20.3643C21.0392 17.3309 18.5632 14.8255 18.5632 14.8021C18.5632 14.7727 18.6336 14.6613 18.7157 14.5556C19.1264 14.01 19.1264 13.1005 18.7098 12.5607C18.6277 12.4493 18.5338 12.3554 18.5103 12.3554C18.481 12.3554 17.0787 13.7518 15.3948 15.4651Z" fill="#3D5008"/>
<path d="M1.0369 12.5844C0.145062 12.9893 -0.242183 14.0219 0.156796 14.9079C0.30348 15.2247 0.720061 15.6589 4.2346 19.1676C7.33843 22.2714 8.20679 23.1046 8.44149 23.2161C8.8522 23.4097 9.56215 23.4156 9.92006 23.2219C10.3073 23.0166 10.5655 22.7643 10.7415 22.4005C10.8764 22.1189 10.9058 21.9957 10.8999 21.626C10.894 20.8398 11.0349 20.9982 6.69302 16.6681C2.34532 12.3263 2.51547 12.473 1.72924 12.473C1.41828 12.473 1.20705 12.5082 1.0369 12.5844Z" fill="#3D5008"/>
<path d="M5.50944 24.7946C3.81964 25.0469 2.36454 26.3025 1.92449 27.8926L1.82474 28.2446L1.19107 28.2681C0.668877 28.2857 0.528061 28.3091 0.398979 28.4089C0.105612 28.626 0 28.8196 0 29.1364C0 29.4533 0.105612 29.6469 0.398979 29.864C0.557398 29.9872 0.575 29.9872 9.59311 30.0048C18.5643 30.0165 18.6288 30.0165 18.8576 29.8992C19.1217 29.7642 19.327 29.4298 19.327 29.1364C19.327 28.8431 19.1217 28.5086 18.8576 28.3737C18.6758 28.2798 18.5115 28.2563 18.048 28.2563H17.4671L17.3967 27.9454C17.162 26.8834 16.1704 25.6982 15.0849 25.1818C14.1931 24.7535 14.4102 24.7711 9.88061 24.7594C7.63928 24.7535 5.66786 24.7711 5.50944 24.7946Z" fill="#09A24B"/>
</svg>
