<svg width="635" height="436" viewBox="0 0 635 436" fill="none" xmlns="http://www.w3.org/2000/svg">
<rect y="0.857422" width="635" height="435" rx="30" fill="#032C29"/>
<path d="M376.022 136.882C376.022 136.882 404.559 148.37 403.78 173.977C403.001 199.583 431.288 207.172 452.776 218.897C503.172 246.399 477.241 298.277 454.144 319.664C431.048 341.05 406.908 375.932 358.481 348.056C310.053 320.181 301.538 290.835 302.877 239.515C304.217 188.195 364.647 140.5 376.022 136.882Z" fill="#2C290B"/>
<path d="M306.093 193.344C306.093 193.344 273.666 185.579 251.814 196.868C240.715 202.609 212.887 219.417 188.186 234.586C164.255 249.282 143.258 262.428 143.258 262.428C143.258 262.428 143.913 308.05 167.881 316.507C184.005 322.197 197.941 328.349 211.346 322.222C217.866 319.239 227.323 301.095 237.012 295.559C266.612 278.64 291.994 262.428 291.994 262.428L306.093 193.344Z" fill="#F8E32A"/>
<path d="M205.296 324.187C211.836 317.232 216.612 306.521 213.814 297.224C210.979 287.787 205.762 277.012 199.266 270.072C196.112 266.704 187.208 268.13 184.098 264.716C181.637 262.02 179.074 259.059 175.51 258.266C169.082 256.834 167.648 250.823 169.565 246.06C154.335 255.485 143.258 262.42 143.258 262.42C143.258 262.42 143.915 308.042 167.881 316.499C181.596 321.348 193.729 326.517 205.296 324.187Z" fill="#D8C413"/>
<path d="M372.244 225.513C383.754 230.512 425.426 223.768 443.975 262.374C449.908 274.721 472.021 307.074 489.41 331.982C492.14 335.891 508.503 345.572 510.692 349.068C519.595 363.267 506.353 365.599 506.353 365.599C506.353 365.599 499.864 405.948 474.533 403.868C449.201 401.789 425.372 393.95 405.27 366.405C403.375 363.808 403.489 352.33 401.669 349.794C384.176 325.437 370.609 304.786 370.609 304.786C370.609 304.786 360.737 220.514 372.244 225.513Z" fill="#F8E32A"/>
<path d="M496.137 352.5C492.133 348.736 487.52 345.183 482.22 343.55C475.928 341.609 468.6 342.778 461.953 343.793C449.308 345.715 436.333 348.685 424.972 354.266C419.92 356.746 414.87 359.588 410.764 363.413C408.905 365.14 407.748 366.342 406.595 368.174C426.416 394.28 449.755 401.839 474.54 403.873C499.871 405.953 506.36 365.604 506.36 365.604C506.757 365.525 507.149 365.421 507.532 365.291C504.033 360.772 500.323 356.436 496.137 352.5Z" fill="#D8C413"/>
<path d="M258.684 249.624C258.684 249.624 249.788 392.504 251.198 403.783L396.399 404.089C404.858 391.4 386.979 341.965 395.428 320.824C403.877 299.682 439.131 279.936 433.492 267.953C427.852 255.97 419.546 231.582 394.108 229.16C365.399 226.425 319.298 196.754 310.133 193.934C300.968 191.114 271.363 187.59 262.904 194.64C254.445 201.69 258.684 249.624 258.684 249.624Z" fill="#F9EB76"/>
<path d="M368.449 221.387C374.712 225.413 356.107 237.285 338.398 233.841C324.68 231.172 313.312 218.347 336.677 208.509C336.677 208.509 345.544 213.187 353.074 215.073C366.629 218.466 361.169 216.706 368.449 221.387Z" fill="#D8C413"/>
<path d="M473.358 348.726C487.318 345.814 504.123 348.389 511.293 369.899C517.741 389.237 506.639 403.822 487.598 404.793C469.772 405.703 428.005 401.638 398.214 400.638C384.074 400.153 377.765 404.521 368.716 403.793C355.612 402.72 353.254 398.233 350.667 398.5C332.128 400.42 315.864 405.052 309.213 404.671C296.352 403.943 299.64 398.847 301.972 395.125C307.068 386.969 336.571 366.49 344.561 364.711C350.109 363.473 362.327 364.141 380.053 369.37C383.38 370.341 395.02 367.142 424.37 359.962C453.887 352.728 459.393 351.65 473.358 348.726Z" fill="#CFD0D0"/>
<path d="M201.916 274.767C209.235 287.01 213.207 303.415 195.216 317.213C179.038 329.618 159.919 324.372 151.695 307.169C143.471 289.966 118.05 219.249 115.473 199.132C112.896 179.015 111.795 152.942 124.131 147.88C129.448 145.696 136.536 142.963 142.904 140.913C147.104 139.559 151.365 113.181 158.798 112.382C165.578 111.654 159.955 132.208 158.633 139.183C157.815 143.502 156.958 149.792 158.812 153.386C160.666 156.98 172.702 165.653 164.119 189.105C162.928 192.361 165.136 204.711 178.123 231.152C191.11 257.594 194.597 262.525 201.916 274.767Z" fill="#CFD0D0"/>
<path d="M470.835 337.342C470.835 337.342 484.373 330.79 496.6 338.216" stroke="#E8D217" stroke-width="3" stroke-linecap="round" stroke-linejoin="round"/>
<path d="M391.596 376.344C391.596 376.344 386.187 371.901 380.048 369.36" stroke="#AFB5B5" stroke-miterlimit="10"/>
<path d="M357.253 398.1C357.253 398.1 350.259 397.755 343.817 399.374" stroke="#AFB5B5" stroke-miterlimit="10"/>
<path d="M346.398 383.103C346.398 383.103 321.681 390.383 302.911 403.47" stroke="#AFB5B5" stroke-miterlimit="10"/>
<path d="M346.398 373.889C346.398 373.889 321.681 381.169 302.911 394.256" stroke="#AFB5B5" stroke-miterlimit="10"/>
<path d="M123.648 149.768C137.65 145.478 131.103 168.063 131.103 168.063C131.103 168.063 123.496 172.727 123.379 166.18" stroke="#AFB5B5" stroke-miterlimit="10"/>
<path d="M134.17 145.56C148.172 141.27 141.622 163.855 141.622 163.855C141.622 163.855 134.015 168.517 133.898 161.972" stroke="#AFB5B5" stroke-miterlimit="10"/>
<path d="M143.28 140.777C157.281 136.487 150.732 159.07 150.732 159.07C150.732 159.07 143.124 163.734 143.008 157.186" stroke="#AFB5B5" stroke-miterlimit="10"/>
<path d="M161.54 157.155C161.54 157.155 159.751 151.794 154.391 157.514C149.031 163.234 152.603 166.451 156.177 170.375" stroke="#AFB5B5" stroke-miterlimit="10"/>
<path d="M229.181 287.682C229.181 287.682 232.707 300.282 222.025 311.251" stroke="#E8D217" stroke-width="3" stroke-linecap="round" stroke-linejoin="round"/>
<path d="M259.674 249.624C259.674 249.624 253.797 334.192 253.797 340.626" stroke="#E8D217" stroke-width="3" stroke-linecap="round" stroke-linejoin="round"/>
<path d="M394.644 339.39L372.055 311.961" stroke="#E8D217" stroke-width="3" stroke-linecap="round" stroke-linejoin="round"/>
<path d="M346.641 150.108C337.546 153.886 331.65 168.684 330.533 172.176C321.179 201.457 341.836 197.193 341.836 197.193C340.276 203.764 330.189 219.96 330.189 219.96C327.932 221.768 332.858 230.152 355.731 226.741C361.936 225.811 362.526 223.074 362.526 223.074C362.319 216.723 367.811 198.928 373.03 158.936C374.613 146.795 358.803 145.058 346.641 150.108Z" fill="#CFD0D0"/>
<path d="M358.444 195.172C352.572 201.255 345.022 204.393 337.262 207.861C341.247 201.044 341.829 197.183 341.829 197.183C346.175 197.164 352.572 197.271 358.444 195.172Z" fill="#B6BBBB"/>
<path d="M323.586 160.491C323.207 161.161 352.991 169.439 354.064 169.842C366.141 174.382 368.473 168.822 368.473 168.822C369.483 174.13 361.213 189.886 368.779 185.12C378.675 178.891 387.306 165 388.568 155.308C389.83 145.616 381.273 137.571 369.861 135.023C351.938 131.022 338.82 133.463 323.586 160.491Z" fill="#2C290B"/>
<path d="M383.603 189.695C385.086 185.064 382.531 180.031 377.709 178.391C372.887 176.751 371.14 184.164 364.605 186.717C364.605 186.717 365.729 200.404 367.554 195.65C368.417 193.388 379.854 201.411 383.603 189.695Z" fill="#CFD0D0"/>
<path d="M151.61 173.055C151.61 173.055 142.239 178.41 141.346 180.194" stroke="#AFB5B5" stroke-miterlimit="10"/>
<path d="M316.357 118.684C317.687 130.272 315.061 141.481 309.478 151.168C307.151 155.204 322.205 171.067 318.922 174.501C315.639 177.935 294.032 168.91 289.931 171.56C281.357 177.076 271.622 180.533 261.489 181.662C227.638 185.545 197.323 163.644 193.787 132.745C190.251 101.845 214.806 73.6471 248.655 69.7668C282.504 65.8865 312.824 87.785 316.357 118.684Z" fill="#4AF2E8"/>
<path d="M124.852 69.3275C124.088 76.1058 125.535 82.9495 128.977 88.8382C130.375 91.2649 121.329 100.797 123.301 102.855C125.274 104.913 138.264 99.4963 140.722 101.088C145.873 104.402 151.721 106.478 157.808 107.155C178.143 109.487 196.354 96.3294 198.482 77.77C200.611 59.2106 185.864 42.2697 165.517 39.9377C145.17 37.6056 126.98 50.7656 124.852 69.3275Z" fill="#4AF2E8"/>
<path d="M318.932 174.501C315.648 177.927 294.027 168.919 289.931 171.56C281.357 177.076 271.622 180.533 261.489 181.662C245.682 183.477 230.645 179.667 218.745 171.955" stroke="#01ACA2" stroke-width="3" stroke-linecap="round" stroke-linejoin="round"/>
<path d="M196.097 110.414C203.1 89.2653 223.275 72.6764 248.657 69.7668C254.593 69.078 260.595 69.1849 266.502 70.0847" stroke="#01ACA2" stroke-width="3" stroke-linecap="round" stroke-linejoin="round"/>
<path d="M179.028 43.954C174.8 41.8287 170.229 40.4698 165.527 39.9402C156.548 38.9113 148.004 40.8964 141.059 45.0363" stroke="#01ACA2" stroke-width="3" stroke-linecap="round" stroke-linejoin="round"/>
<path d="M197.099 64.3576C196.12 61.4209 194.737 58.6349 192.989 56.0801" stroke="#01ACA2" stroke-width="3" stroke-linecap="round" stroke-linejoin="round"/>
<path d="M172.46 106.16C180.319 104.117 187.153 99.7098 191.872 93.7207" stroke="#01ACA2" stroke-width="3" stroke-linecap="round" stroke-linejoin="round"/>
<path d="M128.987 88.8384C130.385 91.2651 121.338 100.797 123.311 102.855C124.245 103.826 127.65 103.129 131.236 102.29" stroke="#01ACA2" stroke-width="3" stroke-linecap="round" stroke-linejoin="round"/>
<path d="M153.945 80.7209C155.003 72.0236 163.607 72.4919 165.452 66.3645C165.959 64.3722 164.238 62.955 162.445 62.5497C160.538 62.176 158.504 62.853 157.927 65.3987L149.805 63.5592C151.472 55.454 157.861 52.6391 164.607 53.9907C172.549 55.619 176.233 61.9746 174.799 68.3083C172.984 76.3164 164.551 76.348 163.525 82.8903L153.945 80.7209ZM151.901 86.9769C152.588 83.9435 155.413 82.5336 158.453 83.2204C161.494 83.9071 163.265 86.3605 162.578 89.3939C161.904 92.3715 159.242 93.8178 156.211 93.131C153.18 92.4443 151.224 89.9545 151.901 86.9769Z" fill="#423877"/>
<path d="M246.267 146.201C246.388 143.997 247.091 142.365 248.373 141.304C249.656 140.242 251.466 139.774 253.802 139.899C256.055 140.022 257.769 140.694 258.944 141.915C260.118 143.137 260.646 144.823 260.528 146.975C260.415 149.047 259.702 150.646 258.388 151.772C257.074 152.898 255.304 153.401 253.076 153.279C250.795 153.156 249.061 152.477 247.873 151.241C246.686 150.005 246.151 148.325 246.267 146.201ZM259.179 133.402L249.23 132.864V94.3032L263.326 95.0676L259.179 133.402Z" fill="#423877"/>
</svg>
