<svg width="120" height="120" viewBox="0 0 120 120" fill="none" xmlns="http://www.w3.org/2000/svg">
<g clip-path="url(#clip0_1448_7297)">
<path d="M29.3672 10.4294C25.2891 11.531 21.9376 14.6951 20.5547 18.7263L20.0391 20.2732L19.9688 48.7498C19.9219 67.4529 19.9922 77.8591 20.1329 79.1013C20.4376 81.3279 21.7032 84.1404 23.1797 85.8279C24.3751 87.1873 26.3672 88.5232 28.3594 89.2966L29.8829 89.8826L69.3282 89.9529C112.758 90.0232 110.227 90.0935 113.25 88.5701C116.297 87.0232 119.039 83.4138 119.742 79.9685C119.93 79.1013 120 69.9373 120 49.9685C120 18.1404 120.07 19.6873 118.477 16.6638C117.07 13.9919 114.586 11.8123 111.68 10.7107L110.274 10.1951L70.4298 10.1482C36.7266 10.1013 30.3985 10.1482 29.3672 10.4294ZM108.399 20.2498C110.016 20.9294 109.922 19.7576 109.875 39.7263L109.805 57.7498L101.555 48.1638C95.9766 41.6482 93.0001 38.3435 92.2969 37.9216C89.2266 36.0466 85.6173 36.0935 82.6641 38.0388C81.8673 38.5779 78.7501 42.1404 71.9063 50.3435L62.2735 61.8982L58.711 58.3826C54.2344 53.9529 53.5079 53.5544 50.0391 53.5544C46.1954 53.5544 46.2188 53.531 37.4532 62.2966L30.0001 69.7263V45.8669C30.0001 19.4998 29.9063 20.9529 31.4766 20.2732C32.6016 19.781 107.203 19.7576 108.399 20.2498Z" fill="#2E3235"/>
<path d="M41.9532 25.5003C40.2423 26.0628 39.0235 26.8831 37.6641 28.3362C34.0313 32.2268 34.172 38.1799 37.9923 42.0237C43.7579 47.7893 53.4376 44.6253 54.8438 36.5393C55.4063 33.3518 54.2344 30.094 51.7032 27.7034C49.7345 25.8753 48.2345 25.2659 45.3516 25.1487C43.7579 25.1018 42.9141 25.1721 41.9532 25.5003Z" fill="#2E3235"/>
<path d="M6.25783 65.5078C2.57814 77.7656 0.140639 86.2968 0.0703268 87.164C-0.328111 91.4531 2.34376 96.1875 6.16408 98.039C6.89064 98.3906 11.6016 99.7969 16.5938 101.133C25.0078 103.383 35.5313 106.195 72.1875 116.016C79.9922 118.125 87 119.883 87.7735 119.93C91.8047 120.258 96.0703 118.055 98.1328 114.586C98.6016 113.789 99.75 110.531 101.25 105.727C102.563 101.555 103.688 97.9922 103.758 97.8047C103.852 97.5469 97.7344 97.5 66.7735 97.5C30.9844 97.5 29.5781 97.4765 27.4453 97.0312C21.5625 95.8125 16.336 91.5703 14.1328 86.1797C12.5156 82.2422 12.586 83.3203 12.4453 63.3515L12.3047 45.2812L6.25783 65.5078Z" fill="#2E3235"/>
</g>
<circle cx="60" cy="60" r="29" stroke="#FA8816" stroke-width="2"/>
<rect x="42" y="58.5" width="34.5" height="4.5" rx="2" fill="#FA8816"/>
<rect x="57" y="78" width="34.5" height="4.5" rx="2" transform="rotate(-90 57 78)" fill="#FA8816"/>
<defs>
<clipPath id="clip0_1448_7297">
<rect width="120" height="120" fill="white"/>
</clipPath>
</defs>
</svg>
