<svg id="Layer_1" data-name="Layer 1" xmlns="http://www.w3.org/2000/svg" viewBox="0 0 60 60"><defs><style>.cls-1{fill:#1fcac0;}.cls-2,.cls-3{fill:#0e7872;}.cls-2,.cls-8,.cls-9{fill-rule:evenodd;}.cls-4{fill:#fff;}.cls-5{fill:#f0f2f4;}.cls-6{fill:#dbdcdd;}.cls-7{fill:#e8e9ea;}.cls-8{fill:#99fff9;}.cls-9{fill:#4bf0e7;}</style></defs><circle class="cls-1" cx="30" cy="30" r="30"/><path class="cls-2" d="M35,59.58,15.24,38.36v-5.7l-1.81-2.18V26.8l2.66-.64,19.77-6.55-1.7-2V15h2.71l3.36,4,3.78.59L59.39,36.06A30,30,0,0,1,35,59.58Z"/><path class="cls-3" d="M20.3,18.54H39.7l1,.48,4.42,5.07v1.22L30,45.29l-15.19-20V24.09L19.18,19Z"/><path class="cls-4" d="M20.25,18.56c0,.05,2.95,5.13,3,5.2s1.24-1.14,2.69-2.6l2.65-2.65H24.43C22.13,18.51,20.25,18.54,20.25,18.56Z"/><path class="cls-4" d="M33.94,21.16c1.45,1.46,2.66,2.63,2.69,2.6s3-5.15,3-5.2-1.88,0-4.18,0H31.29Z"/><path class="cls-4" d="M27.24,21.49l-2.68,2.68H35.34l-2.68-2.68C31.19,20,30,18.81,30,18.81S28.71,20,27.24,21.49Z"/><path class="cls-5" d="M17,21.53c-1.16,1.4-2.11,2.56-2.13,2.59s1.63.05,3.65.05,3.66,0,3.66,0-3-5.16-3-5.16S18.14,20.13,17,21.53Z"/><path class="cls-6" d="M39.24,21.55c-.82,1.42-1.49,2.58-1.49,2.6s1.65,0,3.66,0,3.66,0,3.66,0S40.84,19,40.78,19,40.07,20.14,39.24,21.55Z"/><path class="cls-5" d="M15.38,26.18c8.79,11.52,13,17,13,17s-1.24-4-2.8-8.94l-2.81-8.92-4,0h-4Z"/><path class="cls-5" d="M24,25.37l3,9.47c1.63,5.16,3,9.39,3,9.39s1.37-4.23,3-9.39l3-9.47c0-.05-1.2-.07-6-.07S23.93,25.32,24,25.37Z"/><path class="cls-7" d="M37.12,25.37c-.1.27-5.62,17.81-5.6,17.82s4.22-5.49,13-17l.67-.88h-4A34.78,34.78,0,0,0,37.12,25.37Z"/><path class="cls-8" d="M39.51,15l-.64,3.68v.13h-.13l-3.68.75,3.68.64h.14L39.51,24l.74-3.82,3.82-.63-3.81-.74v-.14Z"/><path class="cls-8" d="M13.4,21.64l-.64,3.67v.14h-.13L9,26.19l3.68.64h.14l.63,3.81.74-3.81L18,26.19l-3.81-.74v-.14Z"/><path class="cls-8" d="M15.18,32.83l-.39,2.24v.08h-.08l-2.24.45,2.24.39h.08l.39,2.32L15.63,36,18,35.6l-2.33-.45v-.08Z"/><path class="cls-9" d="M34.15,12.26l-.39,2.24v.08h-.08L31.44,15l2.24.39h.08l.39,2.32.45-2.33L36.93,15l-2.32-.45V14.5Z"/></svg>