<svg width="150" height="45" viewBox="0 0 150 45" fill="none" xmlns="http://www.w3.org/2000/svg">
<path d="M64.8701 30.3616H66.1887V32.1129H68.0931V33.1892H66.1887V37.4943C66.1887 39.0511 66.6568 39.4162 67.7941 39.4162C67.9608 39.4162 68.1617 39.4018 68.1617 39.4018V40.5261C67.895 40.5584 67.6265 40.5745 67.3578 40.5742C65.6225 40.5742 64.8701 39.4811 64.8701 37.6024V33.1892H63.8505V32.1129H64.8701V30.3616Z" fill="white"/>
<path d="M73.3383 31.9038C75.8946 31.9038 77.4657 33.672 77.4657 36.1777C77.4657 36.2257 77.4657 36.4011 77.4485 36.5621H70.4829C70.5 38.4263 71.8015 39.5507 73.6054 39.5507C74.1294 39.5678 74.6496 39.4579 75.1199 39.2308C75.5902 39.0036 75.9961 38.6663 76.3015 38.2486L77.1716 38.8588C76.6814 39.6468 75.5515 40.675 73.5785 40.675C70.9412 40.675 69.1201 38.8924 69.1201 36.3218C69.1299 33.6552 71.0343 31.9038 73.3383 31.9038ZM76.1128 35.6155C76.0294 33.8786 74.7745 32.9969 73.3383 32.9969C72.6181 32.9951 71.9252 33.2668 71.4051 33.7551C70.885 34.2434 70.5782 34.9102 70.549 35.6155H76.1128Z" fill="white"/>
<path d="M85.6005 34.1357C84.919 33.4633 83.9939 33.0825 83.0269 33.0762C81.2059 33.0762 79.9191 34.4744 79.9191 36.2882C79.9191 38.102 81.272 39.5171 83.0613 39.5171C83.546 39.5096 84.0244 39.4078 84.4687 39.2177C84.913 39.0276 85.3144 38.7529 85.6495 38.4096L86.0515 39.4858C85.234 40.255 84.1429 40.6815 83.0098 40.675C80.4216 40.675 78.5515 38.7531 78.5515 36.2882C78.5538 35.4378 78.8078 34.6063 79.2825 33.8945C79.7573 33.1827 80.4325 32.6211 81.2263 32.2779C82.0201 31.9346 82.8984 31.8244 83.7549 31.9605C84.6113 32.0967 85.409 32.4734 86.0515 33.045L85.6005 34.1357Z" fill="white"/>
<path d="M94.652 35.2456V40.466H93.3333V35.1975C93.3333 33.8642 92.4485 33.0618 91.2794 33.0618C89.9436 33.0618 89.0074 34.0083 89.0074 35.3897V40.466H87.6863V28.8528H89.0074V33.3164C89.2712 32.8801 89.6479 32.5197 90.0993 32.2717C90.5508 32.0237 91.061 31.8968 91.5784 31.9038C93.6005 31.9038 94.652 33.3501 94.652 35.2456Z" fill="white"/>
<path d="M103.789 35.2455V40.466H102.471V35.1975C102.471 33.8642 101.603 33.0618 100.417 33.0618C99.0785 33.0618 98.1618 34.0083 98.1618 35.3897V40.466H96.8407V32.1128H98.1446V33.314C98.4116 32.8762 98.7918 32.5153 99.2467 32.2677C99.7015 32.0201 100.215 31.8946 100.735 31.9038C102.755 31.9038 103.789 33.35 103.789 35.2455Z" fill="white"/>
<path d="M109.953 31.9038C112.576 31.9038 114.48 33.7825 114.48 36.2882C114.48 38.7939 112.544 40.675 109.936 40.675C107.328 40.675 105.409 38.8275 105.409 36.2882C105.409 33.7489 107.365 31.9038 109.953 31.9038ZM109.936 39.517C111.809 39.517 113.145 38.1525 113.145 36.2882C113.145 34.4239 111.809 33.0618 109.936 33.0618C108.064 33.0618 106.75 34.4576 106.75 36.2882C106.762 38.1693 108.088 39.517 109.936 39.517Z" fill="white"/>
<path d="M116.177 28.8528H117.498V40.466H116.177V28.8528Z" fill="white"/>
<path d="M123.718 31.9038C126.341 31.9038 128.245 33.7825 128.245 36.2882C128.245 38.7939 126.306 40.675 123.701 40.675C121.096 40.675 119.174 38.8275 119.174 36.2882C119.174 33.7489 121.127 31.9038 123.718 31.9038ZM123.701 39.517C125.571 39.517 126.909 38.1525 126.909 36.2882C126.909 34.4239 125.571 33.0618 123.701 33.0618C121.831 33.0618 120.527 34.4576 120.527 36.2882C120.527 38.1693 121.848 39.517 123.701 39.517Z" fill="white"/>
<path d="M130.868 41.7176C131.669 42.1597 132.571 42.3976 133.49 42.4095C135.145 42.4095 136.547 41.7513 136.547 39.887V39.1591C136.217 39.6412 135.769 40.0338 135.243 40.3005C134.717 40.5672 134.131 40.6993 133.539 40.6846C131.051 40.6846 129.348 38.8684 129.348 36.3146C129.348 33.7609 131.064 31.9134 133.515 31.9134C134.119 31.9007 134.717 32.0367 135.254 32.3091C135.791 32.5815 136.25 32.9815 136.588 33.4726V32.1224H137.858V39.3296C137.858 42.496 136.005 43.5723 133.5 43.5723C132.407 43.5494 131.337 43.2543 130.392 42.7146L130.868 41.7176ZM133.623 33.069C131.936 33.069 130.681 34.3999 130.681 36.3122C130.681 38.2245 131.983 39.5242 133.654 39.5242C135.441 39.5242 136.596 38.1116 136.596 36.3122C136.596 34.2822 135.277 33.0618 133.623 33.0618V33.069Z" fill="white"/>
<path d="M141.324 43.3416L142.576 40.3843L139.034 32.1128H140.473L143.228 38.8395L145.902 32.1128H147.304L142.647 43.3416H141.324Z" fill="white"/>
<path d="M96.8358 22.7628C96.496 23.0679 96.0489 23.2323 95.5882 23.2216C94.6544 23.2216 94.0931 22.6787 94.0931 21.9988C94.1012 21.7621 94.1766 21.5322 94.3109 21.3353C94.4451 21.1383 94.6329 20.982 94.8529 20.8841C94.7144 20.7712 94.6012 20.6314 94.5206 20.4734C94.44 20.3154 94.3938 20.1428 94.3848 19.9664C94.3848 19.4355 94.7966 18.9333 95.5588 18.9333C96.3211 18.9333 96.7574 19.3586 96.7574 19.9736C96.7574 20.4877 96.3824 20.8361 95.7917 21.1556L96.8137 22.1021C96.9715 21.8188 97.0414 21.4965 97.0147 21.1748H97.4828C97.5123 21.617 97.4 22.0571 97.1618 22.4336L97.6103 22.8637L97.2623 23.1904L96.8358 22.7628ZM96.5098 22.4361L95.1642 21.1892C94.9968 21.2475 94.8511 21.3538 94.7462 21.4944C94.6413 21.6349 94.582 21.8031 94.576 21.9772C94.576 22.4961 95.0368 22.7964 95.5833 22.7964C95.9282 22.7987 96.2604 22.6695 96.5098 22.4361ZM95.473 20.9009C95.9216 20.6823 96.2892 20.382 96.2892 19.9976C96.2609 19.8291 96.1723 19.6759 96.0395 19.5654C95.9066 19.4549 95.738 19.3942 95.5637 19.3942C95.3895 19.3942 95.2209 19.4549 95.088 19.5654C94.9551 19.6759 94.8666 19.8291 94.8382 19.9976C94.8382 20.358 95.1471 20.6222 95.473 20.9009Z" fill="white"/>
<path d="M95.8456 25.319C94.9931 25.3029 94.1645 25.0404 93.4637 24.5644C92.7629 24.0885 92.2211 23.4202 91.9063 22.6436C91.5915 21.8669 91.5177 21.0164 91.6942 20.1988C91.8707 19.3812 92.2897 18.6329 92.8984 18.0478C93.5072 17.4627 94.2787 17.0669 95.1161 16.9099C95.9536 16.753 96.8197 16.842 97.6057 17.1658C98.3917 17.4895 99.0627 18.0336 99.5344 18.7297C100.006 19.4258 100.258 20.243 100.257 21.0787C100.245 22.2142 99.7735 23.2984 98.9464 24.0934C98.1192 24.8885 97.004 25.3292 95.8456 25.319ZM95.8456 17.4655C95.1221 17.4811 94.4194 17.7057 93.8255 18.111C93.2317 18.5163 92.7731 19.0844 92.5072 19.7441C92.2413 20.4038 92.1799 21.1258 92.3307 21.8195C92.4816 22.5132 92.838 23.1479 93.3552 23.644C93.8725 24.14 94.5276 24.4754 95.2384 24.6082C95.9493 24.7409 96.6843 24.6651 97.3514 24.3902C98.0185 24.1152 98.588 23.6535 98.9885 23.0627C99.389 22.4719 99.6027 21.7784 99.6029 21.0691C99.59 20.1036 99.1874 19.1823 98.4833 18.507C97.7791 17.8316 96.8307 17.4572 95.8456 17.4655Z" fill="white"/>
<path d="M73.8138 9.23482H67.1569V25.3309H64.0074V9.23482H57.353V6.63062H73.8138V9.23482Z" fill="white"/>
<path d="M83.9118 6.63062H76.4314V25.3189H79.5834V9.20599H83.4118C86.2084 9.20599 87.4755 10.3399 87.4755 12.4636C87.4755 14.5874 86.2084 15.6901 83.4118 15.6901H81.8628V18.2582H83.9093C88.0907 18.2582 90.7427 16.0769 90.7427 12.454C90.7427 8.83122 88.0932 6.63062 83.9118 6.63062Z" fill="white"/>
<path d="M111.333 6.63062H103.853V25.3189H107.005V9.20599H110.833C113.63 9.20599 114.897 10.3399 114.897 12.4636C114.897 14.5874 113.63 15.6901 110.833 15.6901H109.287V18.2582H111.333C115.515 18.2582 118.167 16.0769 118.167 12.454C118.167 8.83122 115.515 6.63062 111.333 6.63062Z" fill="white"/>
<path d="M48.2108 23.6371L38.6127 42.0948C38.5452 42.2231 38.4429 42.3306 38.3171 42.4056C38.1912 42.4806 38.0468 42.5202 37.8995 42.52H25.7598C25.6394 42.5211 25.5204 42.495 25.4118 42.4439C25.3033 42.3928 25.2082 42.3179 25.1339 42.2251C25.0595 42.1322 25.0079 42.0239 24.983 41.9085C24.9581 41.793 24.9606 41.6735 24.9902 41.5591L25.7108 38.9813C25.758 38.8172 25.8589 38.6729 25.9979 38.5705C26.137 38.468 26.3065 38.4132 26.4804 38.4143H35.2573C35.4047 38.4148 35.5493 38.3753 35.6751 38.3003C35.801 38.2252 35.9032 38.1175 35.9706 37.9891L43.4167 23.6708C43.5688 23.3831 43.6482 23.0639 43.6482 22.7399C43.6482 22.4158 43.5688 22.0966 43.4167 21.8089L38.2696 13.5206C38.0929 13.2028 37.836 12.9346 37.5234 12.7419C37.2108 12.5491 36.853 12.4381 36.4842 12.4196C36.1154 12.401 35.7478 12.4755 35.4168 12.6359C35.0857 12.7963 34.8021 13.0372 34.5931 13.3356L18.6569 41.5903C18.4623 41.8713 18.2016 42.1024 17.8968 42.2641C17.592 42.4257 17.2521 42.5131 16.9056 42.519C16.5591 42.5249 16.2163 42.4491 15.906 42.2979C15.5956 42.1467 15.327 41.9246 15.1225 41.6504L3.69362 23.9062C3.45802 23.5867 3.32257 23.2067 3.30385 22.8129C3.28513 22.4191 3.38395 22.0284 3.58823 21.6888L14.6618 3.30081C14.7332 3.18382 14.8345 3.08708 14.9557 3.0201C15.0769 2.95313 15.2138 2.91822 15.3529 2.91883H29.272C29.4066 2.9164 29.5395 2.94806 29.658 3.01074C29.7764 3.07342 29.8763 3.16501 29.948 3.27663C30.0197 3.38825 30.0609 3.51613 30.0674 3.64789C30.0739 3.77965 30.0456 3.91083 29.9853 4.02874L28.647 6.60412C28.5799 6.73113 28.4787 6.83781 28.3543 6.91273C28.2299 6.98764 28.0871 7.02795 27.9412 7.02934H17.8186C17.6795 7.0285 17.5425 7.0633 17.4212 7.13029C17.3 7.19729 17.1987 7.29417 17.1274 7.41132L8.66176 21.4678C8.45687 21.8072 8.35769 22.198 8.37642 22.5919C8.39514 22.9859 8.53096 23.3659 8.76715 23.6852L14.9902 34.3543C15.1947 34.628 15.4632 34.8497 15.7733 35.0006C16.0834 35.1514 16.4259 35.2271 16.772 35.2212C17.1181 35.2153 17.4577 35.1281 17.7623 34.9667C18.0668 34.8054 18.3274 34.5748 18.5221 34.2942L35.0171 5.1843C35.2263 4.88594 35.5101 4.64517 35.8413 4.48498C36.1725 4.32479 36.5401 4.25055 36.9089 4.26935C37.2777 4.28815 37.6355 4.39936 37.9479 4.59236C38.2604 4.78535 38.5171 5.05368 38.6936 5.37168L48.1887 21.7825C48.3434 22.0674 48.4262 22.3845 48.43 22.7072C48.4338 23.0299 48.3587 23.3488 48.2108 23.6371Z" fill="#FBB544"/>
<path d="M50.2059 23.6371L40.6078 42.0948C40.5401 42.2229 40.4377 42.3303 40.3119 42.4053C40.1862 42.4803 40.0418 42.52 39.8946 42.52H27.7549C27.6343 42.5216 27.515 42.4958 27.4063 42.4449C27.2975 42.3939 27.2022 42.319 27.1277 42.226C27.0533 42.1331 27.0017 42.0245 26.977 41.9089C26.9523 41.7932 26.9551 41.6735 26.9853 41.5591L27.6961 38.9765C27.7433 38.8124 27.8442 38.6681 27.9832 38.5657C28.1223 38.4632 28.2918 38.4084 28.4657 38.4095H37.2549C37.4022 38.4097 37.5466 38.3701 37.6724 38.2951C37.7983 38.2201 37.9006 38.1126 37.9681 37.9843L45.4142 23.666C45.5638 23.3772 45.6408 23.0575 45.6387 22.7336C45.6366 22.4097 45.5554 22.091 45.4019 21.8041L40.2549 13.5158C40.0787 13.1974 39.8219 12.9287 39.5093 12.7355C39.1967 12.5423 38.8387 12.4311 38.4696 12.4126C38.1005 12.394 37.7327 12.4687 37.4016 12.6295C37.0704 12.7903 36.787 13.0318 36.5784 13.3308L20.6495 41.5903C20.4552 41.8713 20.1947 42.1024 19.8902 42.2641C19.5856 42.4257 19.2458 42.5132 18.8995 42.5191C18.5532 42.525 18.2105 42.4491 17.9004 42.2979C17.5902 42.1467 17.3218 41.9246 17.1176 41.6504L5.68626 23.9062C5.45103 23.5864 5.31602 23.2064 5.29773 22.8125C5.27945 22.4187 5.37869 22.0282 5.58332 21.6888L16.6667 3.30081C16.7374 3.18368 16.8382 3.08677 16.959 3.01974C17.0799 2.95272 17.2165 2.91793 17.3554 2.91883H31.2769C31.4115 2.9164 31.5444 2.94806 31.6629 3.01074C31.7813 3.07342 31.8812 3.16501 31.9529 3.27663C32.0246 3.38825 32.0658 3.51613 32.0723 3.64789C32.0788 3.77965 32.0505 3.91083 31.9902 4.02874L30.6372 6.60412C30.5697 6.73238 30.4674 6.83992 30.3416 6.91494C30.2157 6.98995 30.0713 7.02953 29.924 7.02934H19.8113C19.6717 7.02832 19.5343 7.06302 19.4127 7.13001C19.291 7.19701 19.1893 7.29398 19.1176 7.41132L10.6544 21.4678C10.4501 21.8074 10.3513 22.198 10.37 22.5919C10.3887 22.9857 10.5242 23.3657 10.7598 23.6852L16.9828 34.3543C17.1876 34.6281 17.4564 34.8497 17.7666 35.0005C18.0769 35.1514 18.4196 35.227 18.7659 35.2212C19.1121 35.2153 19.4519 35.128 19.7567 34.9667C20.0614 34.8054 20.3222 34.5748 20.5171 34.2942L37.0098 5.17949C37.2185 4.88055 37.5022 4.6392 37.8335 4.4786C38.1647 4.318 38.5326 4.24354 38.9016 4.26235C39.2707 4.28116 39.6287 4.39262 39.9412 4.58603C40.2537 4.77945 40.5103 5.04833 40.6863 5.36688L50.1814 21.7777C50.3367 22.0632 50.42 22.381 50.4242 22.7045C50.4285 23.028 50.3536 23.3478 50.2059 23.6371Z" fill="#0CA9E0"/>
</svg>
