<svg width="293" height="264" viewBox="0 0 293 264" fill="none" xmlns="http://www.w3.org/2000/svg">
<path d="M157.591 0.079077C143.086 -0.0580651 55.2684 -1.40892 52.6874 23.0572C50.2299 46.4468 84.2436 37.8754 84.5525 48.264C84.9094 59.1805 78.4156 62.3347 60.307 61.6422C52.454 61.3473 27.68 64.1176 27.2887 79.7381C26.8974 95.3586 54.5545 93.3083 53.1885 106.2C52.3922 120.846 31.3799 124.028 23.1082 127.909C14.1157 132.606 -2.43468 140.355 1.36826 156.983C6.37249 176.266 38.1483 172.796 50.1063 175.175C58.1035 176.471 83.5228 178.707 79.9121 195.795C78.0106 206.08 57.1425 206.663 61.1307 219.842C65.1671 232.185 101.556 234.592 108.928 234.99C139.53 236.642 206.72 239.351 236.65 226.761C247.633 222.167 257.367 216.64 256.234 200.163C255.692 185.44 247.743 183.287 261.128 171.911C269.592 164.588 285.793 165.178 284.832 143.797C284.317 132.27 254.799 127.484 255.451 115.422C256.481 96.4626 292.719 112.563 292.849 79.0249C292.932 58.0971 227.005 69.809 227.678 49.1005C226.785 40.7006 241.297 37.1349 240.672 27.8435C241.063 12.9293 223.978 1.90992 157.591 0.079077Z" fill="#151519"/>
<path d="M100.059 151.909C99.9806 151.956 99.8902 151.98 99.7985 151.977H49.3237C49.2108 151.976 49.1013 151.939 49.0111 151.871C48.9209 151.803 48.8549 151.708 48.8226 151.6C48.2734 149.2 51.0467 147.315 52.9413 148.24C53.0837 147.641 53.4426 147.114 53.9493 146.763C54.456 146.411 55.0748 146.258 55.6871 146.334C55.3364 145.265 55.4066 144.103 55.8836 143.084C56.3605 142.064 57.2084 141.265 58.2545 140.848C59.1689 140.412 60.2091 140.316 61.1881 140.577C62.1671 140.839 63.0206 141.441 63.5951 142.275C64.3227 138.565 67.5284 135.356 71.4275 135.088C73.5964 134.913 75.7504 135.573 77.4477 136.933C79.0951 138.304 79.6306 139.827 80.0424 141.678C80.6158 140.797 81.4676 140.132 82.4625 139.789C83.4574 139.446 84.5385 139.445 85.534 139.786C87.7993 140.471 88.0877 142.803 87.9847 144.88C89.8106 143.365 92.0004 142.631 94.3824 144.058C96.3663 145.251 96.7919 147.157 96.8742 149.235C98.5011 148.268 100.183 149.235 100.306 151.449C100.321 151.542 100.305 151.638 100.26 151.721C100.216 151.804 100.145 151.87 100.059 151.909Z" fill="#3C3C48"/>
<path d="M240.864 47.4196C240.864 57.0813 267.107 58.8641 268.473 47.4196C269.839 35.9751 240.864 32.9031 240.864 47.4196Z" fill="#151519"/>
<path d="M28.9497 196.076C28.9497 205.745 61.4326 207.61 62.5858 196.076C64.0411 181.855 28.9497 179.153 28.9497 196.076Z" fill="#151519"/>
<path d="M218.252 250.596C218.252 262.061 256.776 264.276 258.176 250.596C259.893 233.735 218.252 230.526 218.252 250.596Z" fill="#151519"/>
<path d="M26.2041 48.0984C26.2041 54.407 44.1068 55.6413 44.7383 48.0984C45.5414 38.8276 26.2041 37.0516 26.2041 48.0984Z" fill="#151519"/>
<path d="M128.787 160.486C129.323 157.798 125.355 155.33 122.287 156.324C122.788 154.48 122.218 152.813 119.506 151.99C118.3 151.658 117.026 151.658 115.82 151.99C117.962 147.732 115.964 142.877 109.354 141.869C102.153 140.779 94.1695 144.304 92.7416 149.981C86.8931 144.242 74.4957 151.12 78.1545 157.73C75.8961 157.366 73.5622 158.649 73.4249 160.548C72.9532 160.352 72.4296 160.318 71.9366 160.452C71.4436 160.586 71.0093 160.881 70.7024 161.289C70.3955 161.697 70.2333 162.195 70.2415 162.706C70.2497 163.216 70.4278 163.709 70.7477 164.107C70.8102 164.184 70.8899 164.246 70.9804 164.288C71.0709 164.33 71.1698 164.35 71.2694 164.347H132.364C132.494 164.351 132.622 164.317 132.734 164.251C132.834 164.196 132.91 164.105 132.947 163.997C133.62 161.995 131.059 160.116 128.787 160.486Z" fill="#565669"/>
<path d="M129.419 205.984C129.659 204.798 127.902 203.707 126.542 204.146C126.769 203.33 126.542 202.59 125.314 202.226C124.781 202.079 124.219 202.079 123.687 202.226C124.634 200.341 123.748 198.194 120.824 197.749C117.646 197.269 114.111 198.832 113.479 201.342C110.891 198.798 105.413 201.842 107.033 204.77C106.031 204.612 104.974 205.175 104.94 206.018C104.731 205.93 104.5 205.914 104.281 205.973C104.063 206.031 103.87 206.161 103.734 206.341C103.597 206.522 103.525 206.742 103.528 206.968C103.532 207.194 103.611 207.412 103.752 207.588C103.779 207.624 103.815 207.653 103.856 207.672C103.896 207.691 103.941 207.7 103.986 207.698H130.991C131.048 207.698 131.104 207.684 131.155 207.657C131.178 207.64 131.196 207.618 131.209 207.593C131.222 207.569 131.23 207.541 131.231 207.513C131.553 206.656 130.421 205.819 129.419 205.984Z" fill="#8080A0"/>
<path d="M238.427 96.0032C238.489 96.0351 238.557 96.0516 238.627 96.0512H276.175C276.259 96.0501 276.34 96.0223 276.407 95.9716C276.474 95.921 276.523 95.8504 276.546 95.77C276.612 95.3753 276.572 94.9701 276.431 94.5955C276.29 94.2209 276.053 93.89 275.743 93.6362C275.434 93.3824 275.062 93.2147 274.667 93.1499C274.272 93.0851 273.866 93.1256 273.491 93.2672C273.388 92.8169 273.119 92.4218 272.737 92.1602C272.356 91.8987 271.89 91.7896 271.432 91.8546C271.69 91.0615 271.637 90.2 271.282 89.4448C270.928 88.6897 270.299 88.0975 269.524 87.7884C268.844 87.4625 268.07 87.3899 267.341 87.5835C266.613 87.7771 265.977 88.2242 265.549 88.8444C265.28 87.4472 264.568 86.1736 263.519 85.2117C262.469 84.2498 261.138 83.6507 259.721 83.5027C258.109 83.3737 256.508 83.8642 255.246 84.8741C254.192 85.7787 253.506 87.0373 253.317 88.4124C252.888 87.7497 252.249 87.2501 251.502 86.9939C250.755 86.7377 249.944 86.7398 249.198 86.9998C247.509 87.5209 247.296 89.2421 247.379 90.7849C246.006 89.6604 244.386 89.1118 242.615 90.1815C241.139 91.0661 240.823 92.4855 240.761 94.0283C239.553 93.3083 238.304 94.0283 238.208 95.674C238.201 95.7457 238.22 95.8174 238.26 95.8773C238.3 95.9371 238.359 95.9816 238.427 96.0032Z" fill="#565669"/>
<path d="M140.56 28.6519C140.602 28.6745 140.649 28.6863 140.697 28.6862H166.096C166.153 28.6876 166.209 28.6692 166.254 28.6343C166.299 28.5993 166.33 28.5498 166.343 28.4942C166.389 28.2277 166.363 27.9538 166.269 27.7003C166.174 27.4469 166.014 27.2231 165.805 27.0516C165.596 26.8801 165.345 26.7672 165.077 26.7243C164.81 26.6813 164.536 26.71 164.284 26.8073C164.213 26.5066 164.034 26.2424 163.781 26.0652C163.527 25.8881 163.218 25.8105 162.911 25.8473C163.085 25.3119 163.048 24.7304 162.809 24.2209C162.569 23.7114 162.144 23.3122 161.62 23.1045C161.164 22.8827 160.644 22.8299 160.152 22.9555C159.661 23.081 159.23 23.3769 158.936 23.7902C158.755 22.8448 158.274 21.9828 157.565 21.3319C156.855 20.681 155.954 20.2759 154.996 20.1765C153.905 20.0869 152.822 20.4182 151.969 21.1022C151.262 21.7161 150.799 22.5628 150.664 23.4885C150.377 23.0483 149.951 22.7158 149.454 22.5433C148.957 22.3708 148.417 22.368 147.919 22.5354C146.779 22.8919 146.635 24.0508 146.69 25.0999C146.279 24.677 145.737 24.406 145.152 24.3312C144.567 24.2565 143.974 24.3824 143.47 24.6885C142.475 25.2851 142.255 26.245 142.214 27.2873C141.397 26.8005 140.553 27.2873 140.491 28.3982C140.474 28.4422 140.471 28.4907 140.483 28.5364C140.496 28.5822 140.522 28.6227 140.56 28.6519Z" fill="#3C3C48"/>
<path d="M200.672 248.566C200.668 248.481 200.642 248.398 200.597 248.326C200.559 248.248 200.5 248.182 200.425 248.137C200.351 248.092 200.265 248.069 200.178 248.073L181.012 248.381C180.882 248.383 180.757 248.435 180.665 248.528C180.572 248.62 180.52 248.744 180.518 248.875C180.676 252.564 180.36 256.37 180.971 260.024C181.541 263.453 185.282 263.693 188.172 263.858C191.872 264.07 197.165 264.2 199.293 262.246C201.757 259.976 200.796 252.18 200.672 248.566Z" fill="#8080A0"/>
<path d="M183.848 255.774C183.033 255.774 182.241 255.505 181.596 255.009C180.95 254.513 180.487 253.818 180.278 253.031C180.262 252.955 180.276 252.875 180.319 252.81C180.361 252.744 180.428 252.698 180.504 252.682C180.58 252.665 180.659 252.679 180.724 252.72C180.79 252.761 180.837 252.826 180.855 252.901C180.855 253.011 181.541 255.692 184.699 255.116C186.792 254.739 186.95 250.364 186.95 250.316C186.949 250.243 186.975 250.172 187.023 250.117C187.071 250.061 187.138 250.026 187.211 250.018C187.284 250.009 187.357 250.028 187.417 250.07C187.476 250.113 187.518 250.176 187.534 250.247C187.589 250.433 187.644 250.679 187.712 250.967C187.952 252.03 188.316 253.628 189.085 254.3C190.046 255.137 192.25 255.239 193.382 254.739C194.515 254.238 195.133 252.627 195.092 251.132C195.056 250.905 195.036 250.676 195.03 250.446C195.028 250.371 195.054 250.299 195.104 250.243C195.154 250.187 195.223 250.152 195.298 250.145C195.372 250.138 195.447 250.16 195.507 250.206C195.566 250.251 195.607 250.318 195.62 250.391C195.62 250.604 195.668 250.83 195.682 251.077C195.922 252.682 196.869 254.026 198.064 254.382C199.018 254.67 199.945 254.266 200.666 253.244C200.711 253.18 200.78 253.137 200.857 253.125C200.935 253.112 201.014 253.13 201.077 253.175C201.141 253.221 201.184 253.29 201.197 253.367C201.21 253.444 201.192 253.523 201.146 253.587C200.274 254.807 199.087 255.308 197.899 254.958C197.363 254.773 196.874 254.473 196.465 254.08C196.056 253.687 195.737 253.21 195.531 252.682C195.445 253.241 195.225 253.77 194.891 254.226C194.556 254.682 194.116 255.051 193.609 255.301C192.298 255.884 189.861 255.781 188.694 254.766C187.992 253.996 187.517 253.047 187.321 252.023C187.046 253.491 186.381 255.452 184.781 255.719C184.472 255.764 184.16 255.783 183.848 255.774Z" fill="#939698"/>
<path d="M190.156 246.785C188.097 246.785 181.232 246.874 180.47 248.423C179.461 250.611 190.678 250.439 192.826 250.364C203.116 250.028 204.338 246.27 190.156 246.785Z" fill="#676784"/>
<path d="M190.156 246.386C188.982 246.386 179.173 246.222 180.038 248.882C180.47 250.178 182.557 250.295 183.662 250.453C186.111 250.739 188.577 250.852 191.042 250.789C193.217 250.808 195.39 250.639 197.535 250.281C198.49 250.11 200.576 249.781 201.002 248.67C202.094 245.79 190.932 246.366 190.156 246.386C190.06 246.399 189.973 246.446 189.909 246.519C189.845 246.591 189.81 246.684 189.81 246.781C189.81 246.877 189.845 246.97 189.909 247.043C189.973 247.115 190.06 247.162 190.156 247.175C192.395 247.082 194.637 247.13 196.87 247.319C197.261 247.353 201.167 247.874 199.883 248.69C197.522 250.233 193.753 249.959 191.042 249.986C188.021 249.986 184.795 250.069 181.864 249.301C180.443 248.924 181.404 248.101 182.344 247.833C183.348 247.58 184.373 247.422 185.406 247.36C186.978 247.209 188.57 247.175 190.156 247.175C190.252 247.162 190.34 247.115 190.403 247.043C190.467 246.97 190.502 246.877 190.502 246.781C190.502 246.684 190.467 246.591 190.403 246.519C190.34 246.446 190.252 246.399 190.156 246.386Z" fill="#576060"/>
<path d="M200.81 225.06C200.679 232.816 200.405 240.571 200.295 248.327C200.295 248.405 200.326 248.48 200.381 248.535C200.437 248.59 200.512 248.621 200.59 248.621C200.668 248.621 200.743 248.59 200.799 248.535C200.854 248.48 200.885 248.405 200.885 248.327C200.995 240.571 201.27 232.816 201.4 225.06C201.4 224.982 201.369 224.907 201.314 224.852C201.258 224.797 201.183 224.766 201.105 224.766C201.027 224.766 200.952 224.797 200.896 224.852C200.841 224.907 200.81 224.982 200.81 225.06Z" fill="#434C4C"/>
<path d="M179.008 224.93C179.248 232.781 179.351 240.605 180.175 248.422C180.216 248.799 180.806 248.799 180.765 248.422C179.941 240.605 179.838 232.781 179.598 224.93C179.598 224.851 179.567 224.776 179.512 224.721C179.456 224.666 179.381 224.635 179.303 224.635C179.225 224.635 179.15 224.666 179.094 224.721C179.039 224.776 179.008 224.851 179.008 224.93Z" fill="#434C4C"/>
<path d="M189.648 226.239C190.334 234.159 189.476 242.1 190.17 250.006C190.204 250.383 190.794 250.39 190.76 250.006C190.073 242.1 190.897 234.159 190.238 226.239C190.238 225.869 189.614 225.862 189.648 226.239Z" fill="#434C4C"/>
<path d="M231.213 157.51C228.735 151.236 224.17 144.989 217.024 143.7H216.873C216.834 143.697 216.795 143.697 216.756 143.7C211.422 143.159 208.313 148.5 206.459 152.539C203.075 159.89 201.592 168.118 200.281 176.025C197.679 191.57 194.982 208.603 199.547 224.024C199.608 224.211 199.721 224.376 199.872 224.501C200.024 224.626 200.208 224.705 200.403 224.73C200.598 224.754 200.796 224.723 200.973 224.639C201.151 224.556 201.302 224.423 201.407 224.258C206.288 216.77 216.358 214.198 222.79 208.219C229.517 201.972 232.936 192.838 234.034 184.006C235.105 174.948 234.576 166.034 231.213 157.51Z" fill="#939698"/>
<path d="M178.095 182.656C175.72 169.867 170.132 157.079 163.68 145.751C163.596 145.582 163.46 145.444 163.292 145.358C163.124 145.271 162.932 145.241 162.746 145.271C162.588 145.278 162.433 145.32 162.293 145.394C155.806 148.727 152.319 155.111 150.136 161.701C147.788 168.777 146.559 177.403 147.651 184.816C149.058 194.416 154.515 202.864 161.62 209.419C167.476 214.788 174.759 218.272 179.983 224.416C180.124 224.551 180.302 224.644 180.494 224.681C180.687 224.719 180.886 224.701 181.068 224.628C181.251 224.556 181.408 224.433 181.523 224.274C181.637 224.114 181.703 223.926 181.713 223.73C181.691 209.96 180.481 196.218 178.095 182.656Z" fill="#6D6D86"/>
<path d="M208.951 136.289C203.219 133.162 196.519 132.634 190.183 133.882C190.025 133.906 189.877 133.975 189.756 134.079C189.635 134.183 189.545 134.319 189.497 134.471C185.667 139.957 185.104 147.562 184.541 153.946C183.662 163.984 183.896 174.126 184.342 184.179C184.946 197.735 186.085 211.312 187.815 224.773C187.824 225.037 187.934 225.288 188.124 225.473C188.313 225.658 188.566 225.763 188.831 225.767H200.501C200.677 225.767 200.851 225.722 201.005 225.636C201.159 225.549 201.288 225.424 201.379 225.273C212.143 205.525 215.157 181.772 216.962 159.754C217.374 154.734 217.703 149.694 217.786 144.668C217.827 141.335 211.374 137.612 208.951 136.289Z" fill="#6D6D86"/>
<path d="M192.799 137.776C190.952 127.284 172.418 135.657 167.482 139.243C162.938 142.569 161.709 145.709 161.414 150.784C160.984 159.255 161.334 167.747 162.458 176.155C163.875 187.759 166.937 199.102 171.553 209.844C172.981 213.094 174.551 216.28 176.262 219.403C177.038 220.808 178.747 225.3 180.422 225.752C182.886 226.438 186.271 225.787 188.824 225.787C189.035 225.797 189.243 225.734 189.413 225.609C189.583 225.484 189.705 225.305 189.758 225.101C189.804 224.997 189.832 224.885 189.84 224.772C191.446 205.606 192.716 186.372 193.375 167.172C193.698 157.531 194.46 147.348 192.799 137.776Z" fill="#939698"/>
<path d="M178.747 226.206C186.345 227.564 194.124 227.564 201.723 226.206C203.878 225.835 202.965 222.962 200.823 223.333C193.819 224.574 186.651 224.574 179.646 223.333C177.511 222.935 176.598 225.815 178.747 226.206Z" fill="#363D3D"/>
<path d="M119.561 126.244C119.556 126.159 119.53 126.076 119.486 126.004C119.449 125.925 119.389 125.86 119.315 125.816C119.24 125.772 119.154 125.751 119.067 125.757C112.66 125.853 106.272 125.956 99.9015 126.065C99.7716 126.065 99.6469 126.116 99.5544 126.207C99.4619 126.299 99.409 126.422 99.4072 126.552C99.5651 130.248 99.2493 134.047 99.8603 137.702C100.43 141.13 104.171 141.37 107.061 141.535C110.761 141.754 116.054 141.885 118.182 139.924C120.632 137.654 119.671 129.857 119.561 126.244Z" fill="#565669"/>
<path d="M102.723 133.457C101.908 133.457 101.116 133.188 100.471 132.692C99.8252 132.196 99.3619 131.501 99.153 130.714C99.1367 130.638 99.1514 130.558 99.1938 130.493C99.2363 130.427 99.3031 130.381 99.3795 130.365C99.455 130.348 99.5339 130.362 99.5994 130.403C99.6649 130.444 99.7116 130.509 99.7296 130.584C99.7296 130.701 100.416 133.375 103.574 132.806C105.633 132.422 105.825 128.047 105.825 128.006C105.822 127.932 105.846 127.859 105.894 127.803C105.942 127.746 106.009 127.709 106.082 127.7C106.156 127.69 106.23 127.709 106.291 127.751C106.351 127.794 106.393 127.858 106.409 127.93C106.464 128.122 106.519 128.369 106.587 128.65C106.828 129.713 107.191 131.318 107.96 131.983C108.921 132.826 111.125 132.922 112.257 132.422C113.39 131.921 114.008 130.31 113.967 128.815C113.931 128.588 113.91 128.359 113.905 128.129C113.901 128.053 113.927 127.979 113.977 127.921C114.026 127.864 114.097 127.828 114.173 127.821C114.247 127.816 114.321 127.838 114.38 127.884C114.44 127.929 114.48 127.994 114.495 128.068C114.495 128.287 114.543 128.506 114.557 128.753C114.797 130.358 115.745 131.695 116.939 132.058C117.893 132.339 118.82 131.935 119.541 130.913C119.587 130.851 119.656 130.809 119.733 130.796C119.809 130.784 119.888 130.801 119.952 130.845C119.984 130.867 120.011 130.896 120.031 130.929C120.052 130.961 120.066 130.998 120.072 131.036C120.078 131.074 120.077 131.113 120.069 131.151C120.06 131.189 120.044 131.225 120.021 131.256C119.149 132.483 117.962 132.977 116.774 132.627C116.239 132.439 115.751 132.139 115.342 131.746C114.934 131.353 114.615 130.878 114.406 130.351C114.319 130.908 114.099 131.437 113.764 131.892C113.43 132.346 112.991 132.714 112.484 132.963C111.173 133.546 108.736 133.443 107.569 132.429C106.867 131.658 106.392 130.709 106.196 129.686C105.921 131.153 105.256 133.114 103.656 133.382C103.348 133.437 103.035 133.462 102.723 133.457Z" fill="#6B6E70"/>
<path d="M109.031 124.46C106.972 124.46 100.107 124.55 99.3453 126.106C98.3362 128.287 109.553 128.115 111.701 128.04C121.991 127.704 123.213 123.946 109.031 124.46Z" fill="#2C2C3D"/>
<path d="M109.031 124.069C107.857 124.069 98.0479 123.897 98.9128 126.558C99.3453 127.854 101.432 127.97 102.537 128.128C104.986 128.414 107.452 128.528 109.917 128.471C112.092 128.484 114.264 128.314 116.41 127.963C117.365 127.792 119.451 127.456 119.877 126.345C120.969 123.465 109.807 124.041 109.031 124.069C108.523 124.069 108.523 124.871 109.031 124.85C111.27 124.758 113.512 124.806 115.745 124.994C116.136 125.035 120.042 125.557 118.758 126.366C116.397 127.902 112.628 127.627 109.917 127.655C106.896 127.655 103.67 127.737 100.739 126.969C99.3178 126.585 100.279 125.769 101.219 125.495C102.223 125.242 103.248 125.083 104.281 125.022C105.853 124.871 107.445 124.843 109.031 124.837C109.121 124.82 109.201 124.772 109.26 124.702C109.318 124.632 109.349 124.544 109.349 124.453C109.349 124.362 109.318 124.273 109.26 124.203C109.201 124.133 109.121 124.086 109.031 124.069Z" fill="#576060"/>
<path d="M119.685 102.744C119.554 110.493 119.28 118.248 119.17 126.003C119.17 126.082 119.201 126.157 119.256 126.212C119.312 126.267 119.387 126.298 119.465 126.298C119.543 126.298 119.618 126.267 119.674 126.212C119.729 126.157 119.76 126.082 119.76 126.003C119.87 118.248 120.145 110.493 120.275 102.744C120.275 102.666 120.244 102.591 120.189 102.536C120.133 102.48 120.058 102.449 119.98 102.449C119.902 102.449 119.827 102.48 119.771 102.536C119.716 102.591 119.685 102.666 119.685 102.744Z" fill="#434C4C"/>
<path d="M97.8833 102.6C98.1236 110.451 98.2265 118.275 99.0503 126.099C99.0915 126.469 99.6818 126.469 99.6406 126.099C98.8169 118.275 98.7139 110.451 98.4737 102.6C98.4737 102.521 98.4426 102.446 98.3872 102.391C98.3318 102.336 98.2568 102.305 98.1785 102.305C98.1002 102.305 98.0251 102.336 97.9698 102.391C97.9144 102.446 97.8833 102.521 97.8833 102.6Z" fill="#434C4C"/>
<path d="M108.523 103.922C109.21 111.835 108.352 119.776 109.045 127.689C109.045 128.059 109.67 128.066 109.635 127.689C108.949 119.776 109.773 111.835 109.114 103.922C109.079 103.545 108.489 103.538 108.523 103.922Z" fill="#434C4C"/>
<path d="M150.088 35.1882C147.609 28.9208 143.045 22.6671 135.899 21.378H135.748H135.631C130.29 20.8363 127.188 26.178 125.334 30.2168C121.95 37.5676 120.467 45.803 119.156 53.7024C116.554 69.2474 113.857 86.2805 118.422 101.702C118.489 101.879 118.604 102.034 118.754 102.15C118.903 102.267 119.082 102.34 119.27 102.361C119.458 102.383 119.649 102.353 119.821 102.275C119.994 102.196 120.141 102.071 120.248 101.915C125.128 94.4199 135.198 91.8485 141.63 85.8759C148.358 79.6222 151.776 70.4954 152.875 61.6566C153.98 52.6258 153.451 43.7116 150.088 35.1882Z" fill="#6B6E70"/>
<path d="M96.97 60.3332C94.5949 47.5447 89.0072 34.763 82.5545 23.4282C82.4695 23.2605 82.3331 23.1242 82.1652 23.0391C81.9974 22.954 81.8067 22.9246 81.621 22.9551C81.4627 22.9563 81.3071 22.9964 81.1679 23.0716C74.6809 26.4042 71.1937 32.795 69.0108 39.3847C66.6632 46.4612 65.4344 55.0875 66.5259 62.4931C67.8988 72.0931 73.3904 80.541 80.4952 87.0964C86.3506 92.4724 93.6339 95.949 98.8578 102.093C98.9992 102.229 99.1768 102.321 99.3693 102.358C99.5618 102.396 99.761 102.378 99.9434 102.306C100.126 102.233 100.283 102.11 100.398 101.951C100.512 101.792 100.578 101.603 100.588 101.407C100.566 87.6374 99.3557 73.8952 96.97 60.3332Z" fill="#565669"/>
<path d="M127.799 13.9641C122.067 10.8373 115.367 10.3093 109.031 11.5642C108.873 11.5859 108.724 11.6523 108.603 11.7555C108.481 11.8588 108.392 11.9946 108.345 12.147C104.514 17.6327 103.951 25.2441 103.388 31.6212C102.51 41.66 102.743 51.8017 103.189 61.8542C103.793 75.4107 104.933 88.9877 106.663 102.448C106.672 102.713 106.782 102.964 106.971 103.149C107.161 103.334 107.414 103.439 107.679 103.443H119.348C119.525 103.443 119.699 103.398 119.853 103.311C120.007 103.225 120.136 103.1 120.227 102.949C130.991 83.2003 134.004 59.4473 135.81 37.4292C136.221 32.4166 136.551 27.3698 136.633 22.3435C136.723 19.011 130.249 15.2876 127.799 13.9641Z" fill="#565669"/>
<path d="M111.674 15.4603C109.848 4.94834 91.2725 13.3346 86.3575 16.9277C81.8132 20.2465 80.5844 23.3871 80.2893 28.4614C79.8594 36.9325 80.2087 45.4252 81.3327 53.8326C82.7503 65.434 85.8129 76.775 90.4282 87.5147C91.856 90.7742 93.4257 93.9604 95.1372 97.0736C95.9129 98.4861 97.6222 102.978 99.2971 103.423C101.761 104.109 105.146 103.423 107.699 103.423C107.91 103.435 108.119 103.372 108.289 103.247C108.459 103.122 108.581 102.942 108.633 102.738C108.68 102.634 108.707 102.522 108.715 102.408C110.322 83.2428 111.591 64.0086 112.25 44.8087C112.58 35.2087 113.335 25.0259 111.674 15.4603Z" fill="#6B6E70"/>
<path d="M97.5947 103.888C105.193 105.243 112.972 105.243 120.57 103.888C122.726 103.511 121.813 100.638 119.671 101.008C112.667 102.249 105.498 102.249 98.4939 101.008C96.3591 100.611 95.4461 103.491 97.5947 103.888Z" fill="#363D3D"/>
</svg>
