<svg width="540" height="350" viewBox="0 0 540 350" fill="none" xmlns="http://www.w3.org/2000/svg">
<path d="M177.944 20.144C176.984 20.144 176.096 19.988 175.28 19.676C174.476 19.352 173.774 18.902 173.174 18.326C172.586 17.738 172.124 17.054 171.788 16.274C171.452 15.494 171.284 14.636 171.284 13.7C171.284 12.764 171.452 11.906 171.788 11.126C172.124 10.346 172.592 9.668 173.192 9.092C173.792 8.504 174.494 8.054 175.298 7.742C176.114 7.418 177.002 7.256 177.962 7.256C178.934 7.256 179.828 7.424 180.644 7.76C181.472 8.084 182.174 8.57 182.75 9.218L181.58 10.352C181.1 9.848 180.56 9.476 179.96 9.236C179.36 8.984 178.718 8.858 178.034 8.858C177.326 8.858 176.666 8.978 176.054 9.218C175.454 9.458 174.932 9.794 174.488 10.226C174.044 10.658 173.696 11.174 173.444 11.774C173.204 12.362 173.084 13.004 173.084 13.7C173.084 14.396 173.204 15.044 173.444 15.644C173.696 16.232 174.044 16.742 174.488 17.174C174.932 17.606 175.454 17.942 176.054 18.182C176.666 18.422 177.326 18.542 178.034 18.542C178.718 18.542 179.36 18.422 179.96 18.182C180.56 17.93 181.1 17.546 181.58 17.03L182.75 18.164C182.174 18.812 181.472 19.304 180.644 19.64C179.828 19.976 178.928 20.144 177.944 20.144ZM190.865 20V17.984L190.775 17.606V14.168C190.775 13.436 190.559 12.872 190.127 12.476C189.707 12.068 189.071 11.864 188.219 11.864C187.655 11.864 187.103 11.96 186.563 12.152C186.023 12.332 185.567 12.578 185.195 12.89L184.475 11.594C184.967 11.198 185.555 10.898 186.239 10.694C186.935 10.478 187.661 10.37 188.417 10.37C189.725 10.37 190.733 10.688 191.441 11.324C192.149 11.96 192.503 12.932 192.503 14.24V20H190.865ZM187.733 20.108C187.025 20.108 186.401 19.988 185.861 19.748C185.333 19.508 184.925 19.178 184.637 18.758C184.349 18.326 184.205 17.84 184.205 17.3C184.205 16.784 184.325 16.316 184.565 15.896C184.817 15.476 185.219 15.14 185.771 14.888C186.335 14.636 187.091 14.51 188.039 14.51H191.063V15.752H188.111C187.247 15.752 186.665 15.896 186.365 16.184C186.065 16.472 185.915 16.82 185.915 17.228C185.915 17.696 186.101 18.074 186.473 18.362C186.845 18.638 187.361 18.776 188.021 18.776C188.669 18.776 189.233 18.632 189.713 18.344C190.205 18.056 190.559 17.636 190.775 17.084L191.117 18.272C190.889 18.836 190.487 19.286 189.911 19.622C189.335 19.946 188.609 20.108 187.733 20.108ZM188.507 23.528C188.255 23.528 188.039 23.444 187.859 23.276C187.679 23.108 187.589 22.892 187.589 22.628C187.589 22.352 187.679 22.124 187.859 21.944C188.039 21.776 188.255 21.692 188.507 21.692C188.759 21.692 188.975 21.776 189.155 21.944C189.335 22.124 189.425 22.352 189.425 22.628C189.425 22.892 189.335 23.108 189.155 23.276C188.975 23.444 188.759 23.528 188.507 23.528ZM185.321 9.074L187.715 6.734H189.371L191.765 9.074H190.199L187.823 7.094H189.263L186.887 9.074H185.321ZM200.759 20.108C199.967 20.108 199.241 19.928 198.581 19.568C197.933 19.196 197.411 18.65 197.015 17.93C196.631 17.21 196.438 16.31 196.438 15.23C196.438 14.15 196.625 13.25 196.997 12.53C197.381 11.81 197.897 11.27 198.545 10.91C199.205 10.55 199.943 10.37 200.759 10.37C201.695 10.37 202.523 10.574 203.243 10.982C203.963 11.39 204.533 11.96 204.953 12.692C205.373 13.412 205.583 14.258 205.583 15.23C205.583 16.202 205.373 17.054 204.953 17.786C204.533 18.518 203.963 19.088 203.243 19.496C202.523 19.904 201.695 20.108 200.759 20.108ZM195.701 23.492V10.46H197.357V13.034L197.249 15.248L197.429 17.462V23.492H195.701ZM200.615 18.596C201.227 18.596 201.773 18.458 202.253 18.182C202.745 17.906 203.129 17.516 203.405 17.012C203.693 16.496 203.837 15.902 203.837 15.23C203.837 14.546 203.693 13.958 203.405 13.466C203.129 12.962 202.745 12.572 202.253 12.296C201.773 12.02 201.227 11.882 200.615 11.882C200.015 11.882 199.469 12.02 198.977 12.296C198.497 12.572 198.113 12.962 197.825 13.466C197.549 13.958 197.411 14.546 197.411 15.23C197.411 15.902 197.549 16.496 197.825 17.012C198.113 17.516 198.497 17.906 198.977 18.182C199.469 18.458 200.015 18.596 200.615 18.596ZM217.898 10.37C218.678 10.37 219.362 10.52 219.95 10.82C220.55 11.12 221.018 11.576 221.354 12.188C221.69 12.8 221.858 13.574 221.858 14.51V20H220.13V14.708C220.13 13.784 219.902 13.088 219.446 12.62C219.002 12.152 218.372 11.918 217.556 11.918C216.944 11.918 216.41 12.038 215.954 12.278C215.498 12.518 215.144 12.872 214.892 13.34C214.652 13.808 214.532 14.39 214.532 15.086V20H212.804V10.46H214.46V13.034L214.19 12.35C214.502 11.726 214.982 11.24 215.63 10.892C216.278 10.544 217.034 10.37 217.898 10.37ZM230.15 10.37C230.93 10.37 231.614 10.52 232.202 10.82C232.802 11.12 233.27 11.576 233.606 12.188C233.942 12.8 234.11 13.574 234.11 14.51V20H232.382V14.708C232.382 13.784 232.154 13.088 231.698 12.62C231.254 12.152 230.624 11.918 229.808 11.918C229.196 11.918 228.662 12.038 228.206 12.278C227.75 12.518 227.396 12.872 227.144 13.34C226.904 13.808 226.784 14.39 226.784 15.086V20H225.056V6.644H226.784V13.034L226.442 12.35C226.754 11.726 227.234 11.24 227.882 10.892C228.53 10.544 229.286 10.37 230.15 10.37ZM243.23 20V17.984L243.14 17.606V14.168C243.14 13.436 242.924 12.872 242.492 12.476C242.072 12.068 241.436 11.864 240.584 11.864C240.02 11.864 239.468 11.96 238.928 12.152C238.388 12.332 237.932 12.578 237.56 12.89L236.84 11.594C237.332 11.198 237.92 10.898 238.604 10.694C239.3 10.478 240.026 10.37 240.782 10.37C242.09 10.37 243.098 10.688 243.806 11.324C244.514 11.96 244.868 12.932 244.868 14.24V20H243.23ZM240.098 20.108C239.39 20.108 238.766 19.988 238.226 19.748C237.698 19.508 237.29 19.178 237.002 18.758C236.714 18.326 236.57 17.84 236.57 17.3C236.57 16.784 236.69 16.316 236.93 15.896C237.182 15.476 237.584 15.14 238.136 14.888C238.7 14.636 239.456 14.51 240.404 14.51H243.428V15.752H240.476C239.612 15.752 239.03 15.896 238.73 16.184C238.43 16.472 238.28 16.82 238.28 17.228C238.28 17.696 238.466 18.074 238.838 18.362C239.21 18.638 239.726 18.776 240.386 18.776C241.034 18.776 241.598 18.632 242.078 18.344C242.57 18.056 242.924 17.636 243.14 17.084L243.482 18.272C243.254 18.836 242.852 19.286 242.276 19.622C241.7 19.946 240.974 20.108 240.098 20.108ZM240.872 23.528C240.62 23.528 240.404 23.444 240.224 23.276C240.044 23.108 239.954 22.892 239.954 22.628C239.954 22.352 240.044 22.124 240.224 21.944C240.404 21.776 240.62 21.692 240.872 21.692C241.124 21.692 241.34 21.776 241.52 21.944C241.7 22.124 241.79 22.352 241.79 22.628C241.79 22.892 241.7 23.108 241.52 23.276C241.34 23.444 241.124 23.528 240.872 23.528ZM237.686 9.074L240.08 6.734H241.736L244.13 9.074H242.564L240.188 7.094H241.628L239.252 9.074H237.686ZM251.342 20.108C250.382 20.108 249.638 19.85 249.11 19.334C248.582 18.818 248.318 18.08 248.318 17.12V8.372H250.046V17.048C250.046 17.564 250.172 17.96 250.424 18.236C250.688 18.512 251.06 18.65 251.54 18.65C252.08 18.65 252.53 18.5 252.89 18.2L253.43 19.442C253.166 19.67 252.848 19.838 252.476 19.946C252.116 20.054 251.738 20.108 251.342 20.108ZM246.698 11.882V10.46H252.782V11.882H246.698ZM263.629 20.108C262.669 20.108 261.925 19.85 261.397 19.334C260.869 18.818 260.605 18.08 260.605 17.12V8.372H262.333V17.048C262.333 17.564 262.459 17.96 262.711 18.236C262.975 18.512 263.347 18.65 263.827 18.65C264.367 18.65 264.817 18.5 265.177 18.2L265.717 19.442C265.453 19.67 265.135 19.838 264.763 19.946C264.403 20.054 264.025 20.108 263.629 20.108ZM258.985 11.882V10.46H265.069V11.882H258.985ZM272.9 10.37C273.68 10.37 274.364 10.52 274.952 10.82C275.552 11.12 276.02 11.576 276.356 12.188C276.692 12.8 276.86 13.574 276.86 14.51V20H275.132V14.708C275.132 13.784 274.904 13.088 274.448 12.62C274.004 12.152 273.374 11.918 272.558 11.918C271.946 11.918 271.412 12.038 270.956 12.278C270.5 12.518 270.146 12.872 269.894 13.34C269.654 13.808 269.534 14.39 269.534 15.086V20H267.806V6.644H269.534V13.034L269.192 12.35C269.504 11.726 269.984 11.24 270.632 10.892C271.28 10.544 272.036 10.37 272.9 10.37ZM285.98 20V17.984L285.89 17.606V14.168C285.89 13.436 285.674 12.872 285.242 12.476C284.822 12.068 284.186 11.864 283.334 11.864C282.77 11.864 282.218 11.96 281.678 12.152C281.138 12.332 280.682 12.578 280.31 12.89L279.59 11.594C280.082 11.198 280.67 10.898 281.354 10.694C282.05 10.478 282.776 10.37 283.532 10.37C284.84 10.37 285.848 10.688 286.556 11.324C287.264 11.96 287.618 12.932 287.618 14.24V20H285.98ZM282.848 20.108C282.14 20.108 281.516 19.988 280.976 19.748C280.448 19.508 280.04 19.178 279.752 18.758C279.464 18.326 279.32 17.84 279.32 17.3C279.32 16.784 279.44 16.316 279.68 15.896C279.932 15.476 280.334 15.14 280.886 14.888C281.45 14.636 282.206 14.51 283.154 14.51H286.178V15.752H283.226C282.362 15.752 281.78 15.896 281.48 16.184C281.18 16.472 281.03 16.82 281.03 17.228C281.03 17.696 281.216 18.074 281.588 18.362C281.96 18.638 282.476 18.776 283.136 18.776C283.784 18.776 284.348 18.632 284.828 18.344C285.32 18.056 285.674 17.636 285.89 17.084L286.232 18.272C286.004 18.836 285.602 19.286 285.026 19.622C284.45 19.946 283.724 20.108 282.848 20.108ZM283.388 9.074L280.364 6.734H282.56L285.008 9.074H283.388ZM295.91 10.37C296.69 10.37 297.374 10.52 297.962 10.82C298.562 11.12 299.03 11.576 299.366 12.188C299.702 12.8 299.87 13.574 299.87 14.51V20H298.142V14.708C298.142 13.784 297.914 13.088 297.458 12.62C297.014 12.152 296.384 11.918 295.568 11.918C294.956 11.918 294.422 12.038 293.966 12.278C293.51 12.518 293.156 12.872 292.904 13.34C292.664 13.808 292.544 14.39 292.544 15.086V20H290.816V10.46H292.472V13.034L292.202 12.35C292.514 11.726 292.994 11.24 293.642 10.892C294.29 10.544 295.046 10.37 295.91 10.37ZM308.162 10.37C308.942 10.37 309.626 10.52 310.214 10.82C310.814 11.12 311.282 11.576 311.618 12.188C311.954 12.8 312.122 13.574 312.122 14.51V20H310.394V14.708C310.394 13.784 310.166 13.088 309.71 12.62C309.266 12.152 308.636 11.918 307.82 11.918C307.208 11.918 306.674 12.038 306.218 12.278C305.762 12.518 305.408 12.872 305.156 13.34C304.916 13.808 304.796 14.39 304.796 15.086V20H303.068V6.644H304.796V13.034L304.454 12.35C304.766 11.726 305.246 11.24 305.894 10.892C306.542 10.544 307.298 10.37 308.162 10.37ZM324.312 20.108C323.34 20.108 322.47 19.898 321.702 19.478C320.946 19.058 320.352 18.482 319.92 17.75C319.488 17.018 319.272 16.178 319.272 15.23C319.272 14.282 319.488 13.442 319.92 12.71C320.352 11.978 320.946 11.408 321.702 11C322.47 10.58 323.34 10.37 324.312 10.37C325.176 10.37 325.944 10.544 326.616 10.892C327.3 11.228 327.828 11.732 328.2 12.404L326.886 13.25C326.574 12.782 326.19 12.44 325.734 12.224C325.29 11.996 324.81 11.882 324.294 11.882C323.67 11.882 323.112 12.02 322.62 12.296C322.128 12.572 321.738 12.962 321.45 13.466C321.162 13.958 321.018 14.546 321.018 15.23C321.018 15.914 321.162 16.508 321.45 17.012C321.738 17.516 322.128 17.906 322.62 18.182C323.112 18.458 323.67 18.596 324.294 18.596C324.81 18.596 325.29 18.488 325.734 18.272C326.19 18.044 326.574 17.696 326.886 17.228L328.2 18.056C327.828 18.716 327.3 19.226 326.616 19.586C325.944 19.934 325.176 20.108 324.312 20.108ZM334.382 20.108C333.422 20.108 332.57 19.898 331.826 19.478C331.082 19.058 330.494 18.482 330.062 17.75C329.63 17.006 329.414 16.166 329.414 15.23C329.414 14.282 329.63 13.442 330.062 12.71C330.494 11.978 331.082 11.408 331.826 11C332.57 10.58 333.422 10.37 334.382 10.37C335.33 10.37 336.176 10.58 336.92 11C337.676 11.408 338.264 11.978 338.684 12.71C339.116 13.43 339.332 14.27 339.332 15.23C339.332 16.178 339.116 17.018 338.684 17.75C338.264 18.482 337.676 19.058 336.92 19.478C336.176 19.898 335.33 20.108 334.382 20.108ZM334.382 18.596C334.994 18.596 335.54 18.458 336.02 18.182C336.512 17.906 336.896 17.516 337.172 17.012C337.448 16.496 337.586 15.902 337.586 15.23C337.586 14.546 337.448 13.958 337.172 13.466C336.896 12.962 336.512 12.572 336.02 12.296C335.54 12.02 334.994 11.882 334.382 11.882C333.77 11.882 333.224 12.02 332.744 12.296C332.264 12.572 331.88 12.962 331.592 13.466C331.304 13.958 331.16 14.546 331.16 15.23C331.16 15.902 331.304 16.496 331.592 17.012C331.88 17.516 332.264 17.906 332.744 18.182C333.224 18.458 333.77 18.596 334.382 18.596ZM331.142 9.074L333.536 6.734H335.192L337.586 9.074H336.02L333.644 7.094H335.084L332.708 9.074H331.142ZM346.816 10.37C347.596 10.37 348.28 10.52 348.868 10.82C349.468 11.12 349.936 11.576 350.272 12.188C350.608 12.8 350.776 13.574 350.776 14.51V20H349.048V14.708C349.048 13.784 348.82 13.088 348.364 12.62C347.92 12.152 347.29 11.918 346.474 11.918C345.862 11.918 345.328 12.038 344.872 12.278C344.416 12.518 344.062 12.872 343.81 13.34C343.57 13.808 343.45 14.39 343.45 15.086V20H341.722V10.46H343.378V13.034L343.108 12.35C343.42 11.726 343.9 11.24 344.548 10.892C345.196 10.544 345.952 10.37 346.816 10.37ZM358.15 23.6C357.274 23.6 356.422 23.474 355.594 23.222C354.778 22.982 354.112 22.634 353.596 22.178L354.424 20.846C354.868 21.23 355.414 21.53 356.062 21.746C356.71 21.974 357.388 22.088 358.096 22.088C359.224 22.088 360.052 21.824 360.58 21.296C361.108 20.768 361.372 19.964 361.372 18.884V16.868L361.552 14.978L361.462 13.07V10.46H363.1V18.704C363.1 20.384 362.68 21.62 361.84 22.412C361 23.204 359.77 23.6 358.15 23.6ZM357.934 19.604C357.01 19.604 356.182 19.412 355.45 19.028C354.73 18.632 354.154 18.086 353.722 17.39C353.302 16.694 353.092 15.89 353.092 14.978C353.092 14.054 353.302 13.25 353.722 12.566C354.154 11.87 354.73 11.33 355.45 10.946C356.182 10.562 357.01 10.37 357.934 10.37C358.75 10.37 359.494 10.538 360.166 10.874C360.838 11.198 361.372 11.702 361.768 12.386C362.176 13.07 362.38 13.934 362.38 14.978C362.38 16.01 362.176 16.868 361.768 17.552C361.372 18.236 360.838 18.752 360.166 19.1C359.494 19.436 358.75 19.604 357.934 19.604ZM358.132 18.092C358.768 18.092 359.332 17.96 359.824 17.696C360.316 17.432 360.7 17.066 360.976 16.598C361.264 16.13 361.408 15.59 361.408 14.978C361.408 14.366 361.264 13.826 360.976 13.358C360.7 12.89 360.316 12.53 359.824 12.278C359.332 12.014 358.768 11.882 358.132 11.882C357.496 11.882 356.926 12.014 356.422 12.278C355.93 12.53 355.54 12.89 355.252 13.358C354.976 13.826 354.838 14.366 354.838 14.978C354.838 15.59 354.976 16.13 355.252 16.598C355.54 17.066 355.93 17.432 356.422 17.696C356.926 17.96 357.496 18.092 358.132 18.092ZM366.492 16.022L366.168 7.4H368.202L367.86 16.022H366.492ZM367.194 20.108C366.858 20.108 366.576 19.994 366.348 19.766C366.12 19.538 366.006 19.268 366.006 18.956C366.006 18.62 366.12 18.344 366.348 18.128C366.576 17.912 366.858 17.804 367.194 17.804C367.53 17.804 367.806 17.912 368.022 18.128C368.238 18.344 368.346 18.62 368.346 18.956C368.346 19.268 368.238 19.538 368.022 19.766C367.806 19.994 367.53 20.108 367.194 20.108Z" fill="white"/>
<g clip-path="url(#clip0_3242_49155)">
<path d="M231.726 142.756C222.631 155.417 213.566 219.293 209.036 221.404C204.505 223.515 171.041 224.715 171.041 224.715C171.041 224.715 203.457 250.07 214.614 244.468C225.772 238.865 251.572 178.465 251.572 178.465L231.726 142.756Z" fill="#F9EB76"/>
<path d="M394.097 501.336H336.568L299.712 371.976L276.023 288.811L277.786 363.937L281.086 505.162H232.517C232.517 505.162 218.94 406.327 217.585 326.12C216.756 276.937 220.521 234.755 234.837 226.659C234.837 226.659 268.312 197.671 300.739 226.659C317.825 241.93 342.818 317.338 362.643 385.286C380.453 446.321 394.097 501.336 394.097 501.336Z" fill="#4B46AF"/>
<path d="M281.4 505.467H232.249L232.213 505.204C232.077 504.214 218.618 405.434 217.279 326.127C216.281 267.046 222.138 233.49 234.683 226.396C234.719 226.359 243.197 219.1 255.54 215.503C266.947 212.177 284.083 211.371 300.938 226.438C318.458 242.1 344.32 321.422 362.932 385.208C380.541 445.551 394.249 500.715 394.391 501.269L394.485 501.645H336.335L336.271 501.423L276.378 291.199L278.084 363.938L281.4 505.467ZM232.782 504.856H280.775L277.475 363.953L275.646 286.437L336.78 501.03H393.688C392.443 496.042 379.168 443.072 362.33 385.371C343.741 321.662 317.928 242.443 300.514 226.887C283.869 212.006 266.947 212.8 255.695 216.082C243.478 219.65 235.101 226.817 235.019 226.89C222.642 233.903 216.881 267.271 217.873 326.116C219.201 403.368 232.003 499.117 232.782 504.856Z" fill="#4B46AF"/>
<path d="M300.668 224.954C300.687 225.517 300.711 226.081 300.736 226.644H234.834C234.834 226.644 227.164 172.483 231.349 144.381C232.124 139.197 236.512 134.943 242.788 131.797C259.771 123.27 290.561 122.861 300.734 134.064C307.935 142.016 299.534 190.51 300.668 224.954Z" fill="#F9EB76"/>
<path d="M242.42 84.2624C239.543 90.913 236.01 105.208 242.795 120.135C247.076 129.564 240.544 138.455 240.544 138.455C240.544 138.455 250.476 130.621 246.768 118.65C241.369 101.226 245.607 94.8853 251.269 89.2358C256.93 83.5863 247.762 71.9079 242.42 84.2624Z" fill="#2C290B"/>
<path d="M238.959 140.101L240.293 138.284C240.356 138.196 246.669 129.423 242.515 120.271C234.909 103.525 240.306 88.3836 242.14 84.1409C244.28 79.1938 246.828 78.5064 248.184 78.4951C250.089 78.5177 251.904 79.9657 252.806 82.1876C253.635 84.2291 253.721 87.2117 251.475 89.4542C246.069 94.8576 241.662 101.148 247.057 118.566C250.787 130.597 240.829 138.628 240.728 138.709L238.959 140.101ZM248.139 79.1074C246.102 79.1074 244.173 80.9856 242.701 84.3831C240.891 88.5677 235.575 103.501 243.076 120.017C246.174 126.843 243.663 133.444 241.986 136.645C244.591 133.801 249.136 127.318 246.487 118.742C240.988 101.003 245.512 94.5628 251.057 89.0222C253.091 86.99 253.009 84.278 252.251 82.4167C251.443 80.4259 249.847 79.1262 248.188 79.1074H248.139Z" fill="#2C290B"/>
<path d="M250.309 81.1617C239.404 85.6355 242.996 118.441 257.623 117.831V133.112C257.623 133.112 261.283 140.436 272.266 133.112C272.266 133.112 268.01 117.121 272.878 110.499C283.336 96.2696 281.716 68.2794 250.309 81.1617Z" fill="#CFD0D0"/>
<path d="M263.614 136.68C262.914 136.683 262.218 136.594 261.541 136.417C260.668 136.196 259.848 135.802 259.129 135.257C258.41 134.713 257.808 134.03 257.358 133.248L257.326 133.183V118.144H257.225C250.187 118.144 246.029 110.632 244.473 103.495C242.478 94.348 244.072 83.3833 250.194 80.8722L250.311 81.1539L250.194 80.8722C265.45 74.6123 272.538 78.286 275.797 82.4705C281.539 89.8404 278.884 102.847 273.134 110.671C268.409 117.1 272.53 132.865 272.572 133.021L272.628 133.233L272.44 133.354C269.144 135.568 266.183 136.68 263.614 136.68ZM257.935 133.032C258.785 134.419 260.138 135.421 261.71 135.829C264.497 136.565 267.932 135.604 271.927 132.976C271.415 130.972 267.989 116.636 272.641 110.318C278.267 102.674 280.879 90.0001 275.315 82.8555C272.185 78.8325 265.333 75.3316 250.425 81.445C244.597 83.8359 243.125 94.4701 245.067 103.373C246.568 110.269 250.551 117.532 257.228 117.534C257.358 117.534 257.487 117.534 257.618 117.534L257.935 117.519V133.032Z" fill="#CFD0D0"/>
<path d="M242.42 84.2625C242.42 84.2625 253.319 58.5937 276.94 79.2854C276.94 79.2854 285.003 64.1155 294.723 72.7381C303.876 80.8574 290.276 94.7389 283.216 89.4293C283.216 89.4293 286.093 103.643 272.422 111.74C272.422 111.74 273.673 91.3826 266.219 96.048C259.942 99.9771 267.787 89.2378 257.066 87.1436C251.95 86.1444 242.42 84.2625 242.42 84.2625Z" fill="#2C290B"/>
<path d="M272.084 112.296L272.12 111.721C272.12 111.584 272.911 98.1101 269.266 95.9445C268.476 95.475 267.533 95.5952 266.382 96.3202C265.052 97.1522 264.261 97.3907 263.741 97.1127C263.13 96.7897 263.094 95.8938 263.049 94.7594C262.952 92.3028 262.804 88.5878 257.009 87.4553C251.893 86.4561 242.363 84.5742 242.363 84.5742L241.988 84.5028L242.136 84.1553C242.181 84.0483 246.765 73.4855 256.201 71.3219C262.477 69.8813 269.425 72.4056 276.851 78.8214C277.744 77.2625 281.689 70.9105 287.165 69.9226C289.826 69.4399 292.433 70.317 294.919 72.522C299.892 76.9338 298.24 82.6922 295.315 86.2833C292.39 89.8743 287.388 92.3178 283.611 90.079C283.968 93.0653 284.538 104.93 272.572 112.016L272.084 112.296ZM268.255 95.0468C268.721 95.0449 269.18 95.1716 269.579 95.413C273.123 97.5241 272.874 108.487 272.767 111.19C285.543 103.247 282.957 89.6377 282.929 89.5006L282.769 88.7136L283.411 89.1944C286.938 91.8464 291.941 89.4743 294.85 85.8945C297.605 82.5138 299.163 77.0991 294.524 72.9765C292.185 70.9012 289.749 70.0766 287.285 70.5199C281.461 71.5698 277.254 79.3604 277.213 79.4374L277.026 79.7773L276.737 79.5257C269.36 73.0629 262.498 70.5105 256.34 71.9135C248.156 73.7916 243.725 82.2302 242.857 84.0464C244.679 84.407 252.608 85.9715 257.122 86.8524C263.391 88.0769 263.556 92.2427 263.655 94.7406C263.689 95.6027 263.721 96.4178 264.03 96.5775C264.227 96.6808 264.741 96.6319 266.061 95.8056C266.847 95.2947 267.584 95.0468 268.253 95.0468H268.255Z" fill="#2C290B"/>
<path d="M268.796 95.4206C268.796 95.4206 275.282 92.9058 275.98 97.7946C276.677 102.683 267.262 103.731 267.262 103.731" fill="#CFD0D0"/>
<path d="M267.298 104.036L267.23 103.428C267.289 103.428 273.055 102.749 275.052 100.169C275.315 99.8464 275.506 99.4722 275.614 99.0706C275.723 98.669 275.745 98.249 275.68 97.8381C275.528 96.7732 275.067 96.0069 274.311 95.5637C272.335 94.403 268.943 95.6932 268.909 95.7064L268.688 95.1429C268.838 95.0847 272.386 93.7343 274.619 95.0434C275.545 95.5862 276.104 96.499 276.284 97.7592C276.36 98.2514 276.332 98.7539 276.203 99.2348C276.074 99.7156 275.846 100.164 275.534 100.552C273.379 103.33 267.546 104 267.298 104.036Z" fill="#2C290B"/>
<path d="M261.31 217.328H151.188V225.477H261.31V217.328Z" fill="#A5A7A9"/>
<path d="M261.617 225.786H150.885V217.024H261.617V225.786ZM151.494 225.173H261.009V217.629H151.494V225.173Z" fill="#A5A7A9"/>
<path d="M233.049 225.48H156.557L136.158 156.29H212.652L233.049 225.48Z" fill="#A5A7A9"/>
<path d="M233.453 225.786H156.327L135.752 155.984H212.878L233.453 225.786ZM156.779 225.173H232.639L212.422 156.589H136.566L156.779 225.173Z" fill="#A5A7A9"/>
<path d="M227.904 225.48H151.413L131.016 156.29H207.507L227.904 225.48Z" fill="#CFD0D0"/>
<path d="M228.314 225.786H151.186L130.607 155.984H207.737L228.314 225.786ZM151.642 225.173H227.498L207.281 156.589H131.423L151.642 225.173Z" fill="#CFD0D0"/>
<path d="M300.737 134.084C315.848 147.44 354.608 205.586 352.254 221.404C349.901 237.222 276.021 217.328 276.021 217.328L278.671 201.863L317.738 203.434C317.738 203.434 294.211 172.6 291.061 161.004C286.354 143.717 296.179 130.058 300.737 134.084Z" fill="#F8E32A"/>
<path d="M278.423 203.292C278.423 203.292 260.458 196.101 250.789 204.481C241.12 212.862 260.203 204.481 260.203 204.481C260.203 204.481 249.219 209.72 250.526 212.34C251.833 214.96 256.407 208.41 261.313 208.41C261.313 208.41 249.54 215.899 253.041 216.614C256.542 217.33 258.155 211.517 276.83 212.582L278.423 203.292Z" fill="#CFD0D0"/>
<path d="M253.636 216.981C253.415 216.98 253.195 216.957 252.979 216.913C252.34 216.782 252.148 216.444 252.1 216.185C251.796 214.537 257.403 210.616 260.062 208.86C258.168 209.275 256.336 210.524 254.811 211.564C253.255 212.625 252.025 213.463 251.1 213.225C250.912 213.17 250.739 213.075 250.592 212.945C250.446 212.815 250.331 212.654 250.254 212.473C250.169 212.293 250.121 212.097 250.114 211.897C250.107 211.698 250.141 211.499 250.213 211.313C250.697 209.906 253.026 208.193 255.295 206.805C252.017 208.018 248.454 209.059 247.852 208.101C247.554 207.626 247.646 206.797 250.588 204.249C260.293 195.842 278.355 202.934 278.53 203.007L278.758 203.099L277.071 212.901L276.799 212.886C264.323 212.177 259.526 214.543 256.66 215.957C255.511 216.536 254.611 216.981 253.636 216.981ZM261.313 208.105H262.361L261.476 208.668C257.707 211.067 252.494 214.949 252.7 216.074C252.724 216.209 252.932 216.28 253.103 216.314C254.148 216.528 255.046 216.083 256.405 215.413C259.304 213.98 264.141 211.591 276.576 212.263L278.076 203.488C275.96 202.699 259.822 197.057 250.984 204.713C248.075 207.233 248.359 207.755 248.359 207.776C248.82 208.508 254.787 206.521 260.07 204.207L260.323 204.771C260.236 204.812 251.674 208.922 250.78 211.532C250.732 211.641 250.708 211.758 250.708 211.876C250.708 211.994 250.732 212.111 250.78 212.22C250.817 212.321 250.878 212.413 250.956 212.487C251.035 212.561 251.13 212.616 251.233 212.648C251.892 212.817 253.133 211.972 254.448 211.074C256.396 209.741 258.794 208.105 261.313 208.105Z" fill="#CFD0D0"/>
<path d="M275.724 288.905C268.004 262.658 248.117 252.523 247.916 252.425L248.186 251.877C248.389 251.976 268.51 262.218 276.315 288.732L275.724 288.905Z" fill="#423877"/>
<path d="M189.794 196.329L190.544 199.784C191.41 203.8 188.856 207.055 184.853 207.055C180.849 207.055 176.89 203.8 176.024 199.786L175.216 196.043C174.465 192.593 176.253 189.704 179.315 188.962L179.377 189.252C180.243 193.265 184.191 196.518 188.2 196.518C188.737 196.52 189.272 196.456 189.794 196.329Z" fill="white"/>
<path d="M184.846 207.361C180.709 207.361 176.617 203.991 175.725 199.848L174.917 196.105C174.166 192.585 175.976 189.454 179.243 188.664L179.547 188.59L179.674 189.184C180.51 193.058 184.334 196.21 188.199 196.21C188.711 196.212 189.222 196.153 189.72 196.033L190.024 195.956L190.836 199.713C191.282 201.779 190.882 203.715 189.71 205.169C188.576 206.585 186.849 207.361 184.846 207.361ZM179.083 189.33C176.3 190.16 174.84 192.844 175.52 195.968L176.329 199.711C177.165 203.587 180.989 206.741 184.854 206.741C186.667 206.741 188.229 206.044 189.244 204.782C190.296 203.477 190.652 201.721 190.247 199.839L189.566 196.683C189.118 196.77 188.663 196.813 188.206 196.811C184.072 196.82 179.987 193.468 179.083 189.34V189.33Z" fill="white"/>
<path d="M179.158 188.243L179.219 188.531C178.698 188.657 178.162 188.72 177.626 188.718C173.618 188.718 169.669 185.467 168.812 181.452L168.748 181.164C169.269 181.037 169.803 180.974 170.338 180.977C172.345 180.977 174.333 181.79 175.932 183.105C177.532 184.419 178.724 186.237 179.158 188.243Z" fill="white"/>
<path d="M177.624 189.022C173.489 189.022 169.397 185.655 168.505 181.51L168.379 180.931L168.666 180.86C169.211 180.73 169.769 180.667 170.329 180.672C172.336 180.672 174.391 181.452 176.116 182.87C177.792 184.215 178.967 186.085 179.454 188.179L179.58 188.758L179.291 188.829C178.745 188.96 178.185 189.025 177.624 189.022ZM169.103 181.395C169.941 185.264 173.763 188.412 177.624 188.412C178.037 188.413 178.45 188.374 178.856 188.297C178.397 186.341 177.296 184.595 175.73 183.339C174.113 182.013 172.195 181.273 170.329 181.273C169.917 181.275 169.507 181.316 169.103 181.395Z" fill="white"/>
</g>
<defs>
<clipPath id="clip0_3242_49155">
<rect width="311" height="290" fill="white" transform="translate(114 60)"/>
</clipPath>
</defs>
</svg>
