<svg width="110" height="110" viewBox="0 0 110 110" fill="none" xmlns="http://www.w3.org/2000/svg">
<circle cx="55" cy="63" r="47" fill="#055C58"/>
<path d="M32 101.5L52.5 63.5L68.5 77L79.5 101.5H32Z" fill="#1AB7AD"/>
<path d="M21.778 0.778046L21 1.5561V6.97561C21 12.3415 21 12.3683 21.6707 13.0122C22.2073 13.5756 22.5829 13.6829 23.8976 13.6829H25.4805L25.6415 16.6878C26.4732 32.0073 33.5293 44.5902 45.8976 52.8268C47.5878 53.9537 48.3659 54.6512 48.3659 55C48.3659 55.3488 47.5878 56.0463 45.8976 57.1732C33.5293 65.4098 26.4732 77.9927 25.6415 93.2854L25.4805 96.3171H23.8976C22.5829 96.3171 22.2073 96.4244 21.6707 96.9878C21 97.6317 21 97.6585 21 103.024V108.444L21.778 109.222L22.5561 110H55.3415H88.1268L88.9049 109.222L89.6829 108.444V103.024C89.6829 97.6585 89.6829 97.6317 89.0122 96.9878C88.4756 96.4244 88.1 96.3171 86.7854 96.3171H85.2024L85.0415 93.1512C84.2098 78.0732 76.9927 65.1951 64.9463 57.2268C63.122 56.0463 62.3171 55.3488 62.3171 55C62.3171 54.6512 63.0951 53.9537 64.8122 52.8268C77.1 44.6439 84.1829 32.0073 85.0415 16.822L85.2024 13.6829H86.7854C88.1 13.6829 88.4756 13.5756 89.0122 13.0122C89.6829 12.3683 89.6829 12.3415 89.6829 6.97561V1.5561L88.9049 0.778046L88.1268 0H55.3415H22.5561L21.778 0.778046ZM70.6341 23.6098C71.4122 24.3878 71.5195 25.1927 71.3854 29.0829C71.2512 32.061 71.1171 32.9463 70.4463 34.878C68.7024 39.9488 65.1878 43.4098 60.0366 45.1268C58.5073 45.6366 57.622 45.7439 55.2073 45.7171C52.578 45.7171 52.0146 45.6098 50.0561 44.8854C47.3463 43.839 45.2805 42.5244 43.5902 40.6463C40.6927 37.4805 39.5122 34.2878 39.2976 29.0829C39.1634 25.1927 39.2707 24.3878 40.0488 23.6098C40.5585 23.1 41.0146 23.0732 55.3415 23.0732C69.6683 23.0732 70.1244 23.1 70.6341 23.6098ZM56.6293 73.7268C56.8171 73.861 60.4659 78.9585 64.7585 85.0756L72.539 96.1829L63.9268 96.2634C59.2049 96.2902 51.4781 96.2902 46.7293 96.2634L38.1171 96.1829L45.8171 85.1829C50.0561 79.1195 53.7317 74.0219 53.9463 73.8341C54.4293 73.4854 56.0927 73.4049 56.6293 73.7268Z" fill="#4AF2E8"/>
</svg>
