<svg width="40" height="40" viewBox="0 0 40 40" fill="none" xmlns="http://www.w3.org/2000/svg">
<path d="M21 5L25 3L29 8L35 9L34 15L38 20L34 24L35 31L29 32L26 38L20 35L14 37L11 32L5 31L6 25L1 20L6 15L5 9L11 8L14 3L18 5H21Z" fill="#21B7EC"/>
<path d="M13.7344 1.00778C13.1797 1.22653 12.8594 1.45309 12.4453 1.90622C11.9531 2.44528 11.5625 3.19528 11.0547 4.57028C10.5234 6.01559 10.2656 6.49215 9.96094 6.57809C9.83594 6.61715 9.04688 6.67965 8.21875 6.71872C7.39062 6.76559 6.4375 6.85153 6.10938 6.92184C4.54688 7.24215 3.60156 8.10153 3.3125 9.46091C3.125 10.3437 3.22656 11.1172 3.78906 13.0468C3.92969 13.539 4.07031 14.1484 4.10156 14.3984C4.15625 14.8437 4.15625 14.8593 3.89844 15.1328C3.75 15.2812 3.19531 15.75 2.65625 16.1718C1.36719 17.1718 0.6875 17.8984 0.320312 18.664C0.0546875 19.2187 0.0390625 19.3047 0.0390625 20C0.0390625 20.6953 0.0546875 20.7812 0.320312 21.3359C0.6875 22.1015 1.36719 22.8281 2.65625 23.8281C3.19531 24.25 3.75 24.7187 3.89844 24.8672C4.15625 25.1406 4.15625 25.1562 4.10156 25.6015C4.07031 25.8515 3.92969 26.4609 3.78906 26.9531C3.22656 28.8828 3.125 29.6562 3.3125 30.539C3.60156 31.8906 4.55469 32.7578 6.11719 33.0781C6.45312 33.1484 7.39844 33.2343 8.22656 33.2812C9.05469 33.3203 9.83594 33.3828 9.96094 33.4218C10.2656 33.5078 10.5234 33.9843 11.0547 35.4297C11.5703 36.8359 11.9609 37.5703 12.4844 38.1406C13.5625 39.2968 15.1094 39.4609 16.7578 38.5859C17.0156 38.4531 17.6016 38.0781 18.0703 37.7656C19 37.125 19.75 36.7187 20 36.7187C20.25 36.7187 21 37.125 21.9297 37.7656C23.5469 38.8672 24.3516 39.1797 25.4297 39.125C25.9609 39.0937 26.1719 39.0468 26.5859 38.8437C27.5781 38.3515 28.2031 37.4531 28.9453 35.4297C29.4766 33.9843 29.7344 33.5078 30.0391 33.4218C30.1719 33.3828 30.9531 33.3203 31.7812 33.2812C32.6094 33.2343 33.5625 33.1484 33.8906 33.0781C35.4531 32.7578 36.3984 31.8984 36.6875 30.539C36.875 29.6562 36.7734 28.8828 36.2109 26.9531C36.0703 26.4609 35.9297 25.8515 35.8984 25.6015C35.8438 25.1562 35.8438 25.1406 36.1016 24.8672C36.25 24.7187 36.8047 24.25 37.3438 23.8281C38.6328 22.8281 39.3125 22.1015 39.6797 21.3359C39.9453 20.7812 39.9609 20.6953 39.9609 20C39.9609 19.3047 39.9453 19.2187 39.6797 18.664C39.3125 17.8984 38.6328 17.1718 37.3438 16.1718C36.8047 15.75 36.25 15.2812 36.1016 15.125L35.8281 14.8437L35.9297 14.2187C35.9766 13.875 36.0938 13.3984 36.1719 13.164C36.4141 12.4687 36.7031 11.1797 36.7578 10.5859C36.8906 9.13278 36.2109 7.85934 34.9766 7.27341C34.2812 6.94528 33.4922 6.80465 31.7812 6.71872C30.9531 6.67965 30.1719 6.61715 30.0391 6.57809C29.7344 6.49215 29.4766 6.01559 28.9453 4.57028C28.1953 2.53903 27.5859 1.6484 26.5781 1.15622C26.1484 0.937466 25.9531 0.890591 25.4141 0.867153C24.3359 0.828091 23.5312 1.14059 21.9297 2.23434C21 2.87497 20.25 3.28122 20 3.28122C19.7578 3.28122 18.9844 2.86715 18.1797 2.31247C17.1328 1.5859 16.5859 1.28122 15.9141 1.05465C15.1797 0.812466 14.2969 0.789028 13.7344 1.00778ZM15.2188 4.36715C15.375 4.45309 15.9609 4.82028 16.5156 5.19528C18.1797 6.31247 18.9766 6.64059 20 6.64059C21.0078 6.64059 21.7969 6.32028 23.4062 5.24997C23.9141 4.91403 24.5078 4.53122 24.7188 4.41403C25.0938 4.19528 25.1016 4.19528 25.2109 4.34372C25.375 4.55465 25.5781 5.03903 25.9922 6.17184C26.6172 7.88278 27.0625 8.61716 27.8281 9.18747C28.625 9.77341 29.4297 9.95309 31.7188 10.0703C32.5156 10.1093 33.2266 10.164 33.3047 10.1953C33.4922 10.2734 33.4375 10.625 33 12.1718C32.0469 15.5234 32.4219 16.6093 35.2188 18.7265C35.5312 18.9609 35.9922 19.3437 36.2344 19.5703L36.6797 19.9843L36.4453 20.2343C36.3203 20.375 35.7656 20.8359 35.2266 21.2578C34.0469 22.1797 33.4375 22.7656 33.0859 23.3125C32.3594 24.4453 32.3438 25.5078 33 27.8359C33.4375 29.375 33.4922 29.7265 33.3047 29.7968C33.2266 29.8281 32.5156 29.8906 31.7188 29.9297C29.4531 30.039 28.7422 30.1953 27.9141 30.7422C27.1406 31.2578 26.625 32.0859 25.9844 33.8437C25.6016 34.8984 25.2578 35.6797 25.1406 35.75C25.0547 35.8047 24.5938 35.539 23.4297 34.7578C21.8516 33.7031 21.0078 33.3593 20 33.3593C18.9766 33.3593 18.1797 33.6875 16.5156 34.8047C15.4062 35.5468 14.9531 35.8047 14.8516 35.75C14.7422 35.6797 14.3906 34.8828 14.0156 33.8437C13.375 32.0859 12.8906 31.3047 12.1016 30.7578C11.2812 30.1953 10.6016 30.0468 8.28125 29.9297C7.48438 29.8906 6.77344 29.8281 6.69531 29.7968C6.50781 29.7265 6.5625 29.375 7 27.8359C7.65625 25.5078 7.64062 24.4453 6.91406 23.3125C6.5625 22.7656 5.95312 22.1797 4.77344 21.2578C4.23438 20.8359 3.6875 20.375 3.5625 20.2422L3.32812 20L3.5625 19.7578C3.6875 19.625 4.23438 19.164 4.77344 18.7422C5.95312 17.8203 6.5625 17.2343 6.91406 16.6875C7.64062 15.5547 7.65625 14.4922 7 12.164C6.5625 10.625 6.50781 10.2734 6.69531 10.2031C6.77344 10.1718 7.45312 10.1172 8.20312 10.0781C10.0547 9.97653 10.4141 9.93747 11.1094 9.71872C12.4922 9.28122 13.1875 8.42965 14.0078 6.17184C14.4453 4.97653 14.7812 4.21872 14.8906 4.21872C14.9141 4.21872 15.0547 4.28903 15.2188 4.36715Z" fill="#21B7EC"/>
<path d="M13.7088 18.0937C13.8917 18.0917 14.0648 18.1023 14.2465 18.1552C14.4288 18.2084 14.6049 18.2998 14.8031 18.4408C15.1895 18.7156 15.6981 19.2079 16.5441 20.0577C16.5442 20.0578 16.5443 20.0579 16.5444 20.058L17.9299 21.4435L21.5031 17.8777L21.5034 17.8774C22.929 16.4597 23.8841 15.5201 24.5096 14.927C24.822 14.6307 25.0552 14.418 25.2252 14.2745C25.31 14.2028 25.3823 14.1456 25.443 14.103C25.4969 14.0652 25.5625 14.0235 25.6301 14.0031C26.9087 13.6124 28.1485 14.4966 28.1485 15.8203C28.1485 16.1052 28.0894 16.4132 27.9639 16.6468C27.9454 16.6829 27.9191 16.7174 27.9019 16.7395C27.8787 16.7692 27.8492 16.8045 27.8149 16.8441C27.746 16.9237 27.6512 17.0282 27.5338 17.1544C27.2986 17.4072 26.9672 17.753 26.5591 18.1724C25.7424 19.0115 24.6145 20.1492 23.325 21.4348L23.3249 21.4349C21.2211 23.5309 20.1043 24.6418 19.4691 25.2388C18.845 25.8253 18.6485 25.9557 18.3941 26.0166L18.3937 26.0167C17.8713 26.1406 17.4148 26.0769 16.9445 25.8019M13.7088 18.0937C13.7085 18.0937 13.7083 18.0937 13.7081 18.0938L13.711 18.3437L13.7093 18.0937C13.7091 18.0937 13.7089 18.0937 13.7088 18.0937ZM13.7088 18.0937C12.334 18.1032 11.4623 19.4965 11.996 20.7686L12.2266 20.6719L11.9948 20.7656C12.0184 20.824 12.0642 20.8872 12.1011 20.9357C12.1443 20.9927 12.2009 21.0616 12.2675 21.1394C12.401 21.2955 12.5822 21.4962 12.7947 21.7251C13.2202 22.1835 13.7775 22.7619 14.3445 23.3367C14.9115 23.9115 15.4897 24.4844 15.9572 24.9317C16.1907 25.1552 16.3979 25.3486 16.5628 25.4957C16.7192 25.6351 16.8576 25.7514 16.9445 25.8019M16.9445 25.8019C16.9443 25.8019 16.9442 25.8018 16.9441 25.8017L17.0703 25.5859L16.9448 25.8021C16.9447 25.8021 16.9446 25.802 16.9445 25.8019Z" fill="white" stroke="white" stroke-width="0.5"/>
</svg>
