<svg width="20" height="20" viewBox="0 0 20 20" fill="none" xmlns="http://www.w3.org/2000/svg">
<path d="M8.9552 0.919908C8.26198 1.15598 2.40898 3.30308 2.27408 3.37052C1.80944 3.60285 1.51716 4.19864 1.61084 4.70825C1.63332 4.82441 1.70827 5.07546 1.77946 5.27031C1.85066 5.46142 1.91061 5.63378 1.91061 5.64877C1.91061 5.66376 1.7982 5.69749 1.6633 5.72371C1.16119 5.81739 0.614108 6.1921 0.333074 6.62677C0.269373 6.73169 0.168201 6.92654 0.115741 7.06518L0.0183161 7.31624L0.0070747 12.7308C-0.00041954 18.0293 -0.000419539 18.1492 0.0745229 18.4377C0.171948 18.8236 0.333074 19.1009 0.632844 19.4007C0.917625 19.6817 1.25487 19.8653 1.63707 19.944C2.01928 20.0265 16.041 20.0265 16.4232 19.944C16.974 19.8279 17.5174 19.4307 17.7909 18.9473C18.0345 18.5201 18.0607 18.3065 18.0607 16.8639V15.5786H18.1469C18.293 15.5786 18.6153 15.4025 18.7914 15.2227C18.8888 15.129 19.0125 14.9529 19.0649 14.8367L19.1661 14.6231V12.8058V10.9884L19.0687 10.7823C18.8963 10.4114 18.6115 10.1641 18.2368 10.0516L18.0794 10.0067L18.0607 8.66146C18.0382 7.33123 18.0382 7.31249 17.9445 7.06518C17.6672 6.35323 17.064 5.83988 16.3483 5.71622L16.0785 5.67126L16.0672 4.82441L16.056 3.97756L15.9323 3.73025C15.7974 3.45296 15.5764 3.23563 15.2953 3.09324L15.1192 3.00705L13.1332 2.98832L11.1473 2.96958L10.9 2.28386C10.6039 1.47073 10.559 1.37706 10.3491 1.18221C10.1243 0.976115 9.83577 0.85246 9.52851 0.829977C9.31492 0.814989 9.22124 0.829977 8.9552 0.919908ZM9.54349 1.9691C9.59595 2.00283 9.65965 2.14522 9.83202 2.62859L9.95568 2.97708L9.64841 2.99956C9.39361 3.01455 9.29618 3.03703 9.10883 3.1382C8.83529 3.28434 8.64418 3.48668 8.50929 3.77147C8.41561 3.97756 8.41186 4.00379 8.40062 4.8319L8.38938 5.68624H5.7589H3.12843L2.91109 5.09795C2.71999 4.5771 2.70125 4.50215 2.74997 4.43471C2.78744 4.37475 3.66426 4.04126 6.0924 3.15319C7.90226 2.48995 9.41234 1.94662 9.44232 1.94287C9.4723 1.94287 9.51726 1.95411 9.54349 1.9691ZM14.8906 4.17241C14.9393 4.22112 14.9506 4.34478 14.9506 4.9593V5.68624H12.2339H9.51726V4.9593C9.51726 4.34478 9.52851 4.22112 9.57722 4.17241C9.62968 4.11995 9.92195 4.11245 12.2339 4.11245C14.5459 4.11245 14.8382 4.11995 14.8906 4.17241ZM16.3108 6.86284C16.5169 6.93778 16.6967 7.09141 16.8129 7.29001L16.9178 7.46613L16.9291 8.7289L16.9403 9.99168L15.6363 10.0029L14.3323 10.0142L14.0325 10.1191C13.0808 10.4526 12.41 11.157 12.1552 12.0938C12.0691 12.3973 12.0616 13.143 12.1365 13.439C12.3426 14.2522 12.8934 14.9454 13.6166 15.2976C14.1974 15.5824 14.2424 15.5899 15.6738 15.6086L16.9366 15.6199V16.8489C16.9366 18.2316 16.9253 18.314 16.678 18.5688C16.6031 18.6475 16.4719 18.745 16.3932 18.7824C16.2471 18.8574 16.1234 18.8574 9.03014 18.8574C1.93684 18.8574 1.81319 18.8574 1.66705 18.7824C1.58836 18.745 1.45721 18.6438 1.38227 18.5651C1.10498 18.2803 1.11997 18.6738 1.13121 12.7683L1.14245 7.46613L1.24737 7.29001C1.36353 7.09141 1.54339 6.93778 1.74949 6.86284C1.95932 6.7879 16.101 6.7879 16.3108 6.86284ZM18.0007 11.1795C18.0532 11.2282 18.0607 11.4306 18.0607 12.7945C18.0607 14.1922 18.0532 14.3608 17.997 14.4245C17.9408 14.4882 17.8396 14.492 16.322 14.492C14.5721 14.492 14.4785 14.4845 14.0813 14.2821C13.6841 14.0798 13.3281 13.6077 13.2307 13.1505C13.0845 12.4498 13.3993 11.7266 14.0176 11.3556C14.3923 11.1308 14.4635 11.1233 16.2883 11.1233C17.7459 11.1196 17.9483 11.1271 18.0007 11.1795Z" fill="white"/>
</svg>
